<mxfile host="Electron" modified="2023-07-12T15:07:25.314Z" agent="Mozilla/5.0 (Windows NT 10.0; Win64; x64) AppleWebKit/537.36 (KHTML, like Gecko) draw.io/21.6.1 Chrome/112.0.5615.204 Electron/24.6.1 Safari/537.36" etag="a2aB_knIrdSkunnFvywN" version="21.6.1" type="device">
  <diagram name="Page-1" id="S9bVMqoKTJ3sRPPoC37E">
    <mxGraphModel dx="677" dy="392" grid="1" gridSize="1" guides="1" tooltips="1" connect="1" arrows="1" fold="1" page="1" pageScale="1" pageWidth="827" pageHeight="1169" math="0" shadow="0">
      <root>
        <mxCell id="0" />
        <mxCell id="1" parent="0" />
        <mxCell id="RekMIjmEzn26gBZNVYGz-30" style="edgeStyle=orthogonalEdgeStyle;shape=connector;rounded=0;orthogonalLoop=1;jettySize=auto;html=1;labelBackgroundColor=default;strokeColor=default;fontFamily=Helvetica;fontSize=11;fontColor=default;startArrow=diamond;startFill=1;endArrow=none;endFill=0;exitX=0.88;exitY=1.01;exitDx=0;exitDy=0;exitPerimeter=0;" parent="1" source="ke4ovrecutf4wJZY0rZ7-6" edge="1">
          <mxGeometry relative="1" as="geometry">
            <mxPoint x="229" y="232" as="targetPoint" />
            <Array as="points">
              <mxPoint x="194" y="232" />
              <mxPoint x="229" y="232" />
            </Array>
            <mxPoint x="206" y="222" as="sourcePoint" />
          </mxGeometry>
        </mxCell>
        <mxCell id="RekMIjmEzn26gBZNVYGz-34" style="edgeStyle=orthogonalEdgeStyle;shape=connector;rounded=0;orthogonalLoop=1;jettySize=auto;html=1;exitX=0.003;exitY=0.144;exitDx=0;exitDy=0;labelBackgroundColor=default;strokeColor=default;fontFamily=Helvetica;fontSize=11;fontColor=default;startArrow=diamond;startFill=1;endArrow=none;endFill=0;exitPerimeter=0;" parent="1" source="ke4ovrecutf4wJZY0rZ7-6" edge="1">
          <mxGeometry relative="1" as="geometry">
            <mxPoint x="135" y="35" as="targetPoint" />
            <Array as="points">
              <mxPoint x="113" y="160" />
              <mxPoint x="113" y="35" />
            </Array>
          </mxGeometry>
        </mxCell>
        <mxCell id="ke4ovrecutf4wJZY0rZ7-5" value="🛈Sbj" style="swimlane;fontStyle=1;childLayout=stackLayout;horizontal=1;startSize=14;fillColor=none;horizontalStack=0;resizeParent=1;resizeParentMax=0;resizeLast=0;collapsible=0;marginBottom=0;spacingLeft=0;labelBackgroundColor=none;fontFamily=Times New Roman;spacingTop=0;spacingBottom=3;spacing=2;" parent="1" vertex="1">
          <mxGeometry x="117" y="136" width="88" height="86" as="geometry" />
        </mxCell>
        <mxCell id="ke4ovrecutf4wJZY0rZ7-6" value="id:🆔&#xa;fcts_plas:🛠️[]&#xa;prts_ids:🆔[]&#xa;def_pla:🛠️&#xa;mods_plas:🛠️[]" style="text;strokeColor=none;fillColor=none;align=left;verticalAlign=top;spacingLeft=0;spacingRight=0;overflow=hidden;rotatable=0;points=[[0,0.5],[1,0.5]];portConstraint=eastwest;spacingTop=-6;labelBackgroundColor=none;fontFamily=Noto Emoji;" parent="ke4ovrecutf4wJZY0rZ7-5" vertex="1">
          <mxGeometry y="14" width="88" height="72" as="geometry" />
        </mxCell>
        <mxCell id="ke4ovrecutf4wJZY0rZ7-9" value="⚓Por" style="swimlane;fontStyle=1;childLayout=stackLayout;horizontal=1;startSize=15;fillColor=none;horizontalStack=0;resizeParent=1;resizeParentMax=0;resizeLast=0;collapsible=0;marginBottom=0;swimlaneLine=1;labelBackgroundColor=none;fontFamily=Noto Emoji;spacing=2;spacingLeft=0;spacingTop=0;spacingBottom=2;" parent="1" vertex="1">
          <mxGeometry x="262.62" y="48.110000000000014" width="51" height="45" as="geometry" />
        </mxCell>
        <mxCell id="ke4ovrecutf4wJZY0rZ7-10" value="sbj_id:🆔&#xa;spcs_ids:🆔[]" style="text;strokeColor=none;fillColor=none;align=left;verticalAlign=top;spacingLeft=0;spacingRight=0;overflow=hidden;rotatable=0;points=[[0,0.5],[1,0.5]];portConstraint=eastwest;spacingTop=-6;labelBackgroundColor=none;fontFamily=Noto Emoji;" parent="ke4ovrecutf4wJZY0rZ7-9" vertex="1">
          <mxGeometry y="15" width="51" height="30" as="geometry" />
        </mxCell>
        <mxCell id="RekMIjmEzn26gBZNVYGz-37" style="edgeStyle=orthogonalEdgeStyle;shape=connector;rounded=0;orthogonalLoop=1;jettySize=auto;html=1;exitX=0.93;exitY=-0.008;exitDx=0;exitDy=0;labelBackgroundColor=default;strokeColor=default;fontFamily=Helvetica;fontSize=11;fontColor=default;startArrow=diamond;startFill=1;endArrow=none;endFill=0;exitPerimeter=0;entryX=0.211;entryY=1.002;entryDx=0;entryDy=0;entryPerimeter=0;" parent="1" source="ke4ovrecutf4wJZY0rZ7-11" target="ke4ovrecutf4wJZY0rZ7-10" edge="1">
          <mxGeometry relative="1" as="geometry">
            <mxPoint x="270" y="95.62" as="targetPoint" />
            <Array as="points">
              <mxPoint x="273" y="104.62" />
              <mxPoint x="273" y="104.62" />
            </Array>
          </mxGeometry>
        </mxCell>
        <mxCell id="ke4ovrecutf4wJZY0rZ7-11" value="🧑‍🤝‍🧑Atr" style="swimlane;fontStyle=1;childLayout=stackLayout;horizontal=1;startSize=12;fillColor=none;horizontalStack=0;resizeParent=1;resizeParentMax=0;resizeLast=0;collapsible=0;marginBottom=0;spacingLeft=0;labelBackgroundColor=none;fontFamily=Noto Emoji;spacing=2;spacingTop=0;spacingBottom=2;" parent="1" vertex="1">
          <mxGeometry x="206.75000000000003" y="108.62" width="72" height="70" as="geometry" />
        </mxCell>
        <mxCell id="ke4ovrecutf4wJZY0rZ7-12" value="stcs_plas:🛠️[]&#xa;knts_ids:🆔[]&#xa;atn_por:⚓&#xa;atd_por:⚓" style="text;strokeColor=none;fillColor=none;align=left;verticalAlign=top;spacingLeft=0;spacingRight=0;overflow=hidden;rotatable=0;points=[[0,0.5],[1,0.5]];portConstraint=eastwest;spacingTop=-6;labelBackgroundColor=none;fontFamily=Noto Emoji;fontStyle=0;startSize=12;spacingBottom=2;spacing=2;" parent="ke4ovrecutf4wJZY0rZ7-11" vertex="1">
          <mxGeometry y="12" width="72" height="58" as="geometry" />
        </mxCell>
        <mxCell id="RekMIjmEzn26gBZNVYGz-64" style="edgeStyle=orthogonalEdgeStyle;shape=connector;rounded=0;orthogonalLoop=1;jettySize=auto;html=1;entryX=1.008;entryY=0.03;entryDx=0;entryDy=0;labelBackgroundColor=default;strokeColor=default;fontFamily=Helvetica;fontSize=11;fontColor=default;startArrow=diamond;startFill=1;endArrow=none;endFill=0;entryPerimeter=0;exitX=0.877;exitY=1.004;exitDx=0;exitDy=0;exitPerimeter=0;" parent="1" source="ke4ovrecutf4wJZY0rZ7-15" target="_75S0M02VXW5GKMzSnu0-5" edge="1">
          <mxGeometry relative="1" as="geometry">
            <mxPoint x="364" y="92.62" as="sourcePoint" />
            <Array as="points">
              <mxPoint x="364" y="104" />
              <mxPoint x="364" y="104" />
              <mxPoint x="364" y="113" />
            </Array>
          </mxGeometry>
        </mxCell>
        <mxCell id="ke4ovrecutf4wJZY0rZ7-14" value="🛠️Pln" style="swimlane;fontStyle=1;childLayout=stackLayout;horizontal=1;startSize=15;fillColor=none;horizontalStack=0;resizeParent=1;resizeParentMax=0;resizeLast=0;collapsible=0;marginBottom=0;labelBackgroundColor=none;fontFamily=Noto Emoji;spacing=2;spacingLeft=0;spacingTop=0;spacingBottom=2;" parent="1" vertex="1">
          <mxGeometry x="315.62" y="48.110000000000014" width="55" height="44" as="geometry" />
        </mxCell>
        <mxCell id="ke4ovrecutf4wJZY0rZ7-15" value="scr_uri:🔗&#xa;spcs_ids:🆔[]" style="text;strokeColor=none;fillColor=none;align=left;verticalAlign=top;spacingLeft=-1;spacingRight=0;overflow=hidden;rotatable=0;points=[[0,0.5],[1,0.5]];portConstraint=eastwest;spacingTop=-7;labelBackgroundColor=none;fontFamily=Noto Emoji;" parent="ke4ovrecutf4wJZY0rZ7-14" vertex="1">
          <mxGeometry y="15" width="55" height="29" as="geometry" />
        </mxCell>
        <mxCell id="RekMIjmEzn26gBZNVYGz-120" style="edgeStyle=orthogonalEdgeStyle;shape=connector;rounded=0;orthogonalLoop=1;jettySize=auto;html=1;entryX=0.346;entryY=1.005;entryDx=0;entryDy=0;entryPerimeter=0;labelBackgroundColor=default;strokeColor=default;fontFamily=Helvetica;fontSize=11;fontColor=default;startArrow=diamond;startFill=1;endArrow=none;endFill=0;" parent="1" target="ke4ovrecutf4wJZY0rZ7-98" edge="1">
          <mxGeometry relative="1" as="geometry">
            <mxPoint x="372" y="209.62" as="sourcePoint" />
            <Array as="points">
              <mxPoint x="391" y="209.62" />
              <mxPoint x="391" y="202.62" />
            </Array>
          </mxGeometry>
        </mxCell>
        <mxCell id="RekMIjmEzn26gBZNVYGz-129" style="edgeStyle=orthogonalEdgeStyle;shape=connector;rounded=0;orthogonalLoop=1;jettySize=auto;html=1;entryX=0.5;entryY=0;entryDx=0;entryDy=0;labelBackgroundColor=default;strokeColor=default;fontFamily=Helvetica;fontSize=11;fontColor=default;startArrow=diamond;startFill=1;endArrow=none;endFill=0;" parent="1" target="ke4ovrecutf4wJZY0rZ7-24" edge="1">
          <mxGeometry relative="1" as="geometry">
            <mxPoint x="372" y="209.62" as="sourcePoint" />
            <Array as="points">
              <mxPoint x="391" y="209.62" />
              <mxPoint x="391" y="237.62" />
            </Array>
          </mxGeometry>
        </mxCell>
        <mxCell id="ke4ovrecutf4wJZY0rZ7-22" value="🗃️Nvp" style="swimlane;fontStyle=1;childLayout=stackLayout;horizontal=1;startSize=15;fillColor=none;horizontalStack=0;resizeParent=1;resizeParentMax=0;resizeLast=0;collapsible=0;marginBottom=0;labelBackgroundColor=none;fontFamily=Noto Emoji;spacing=2;spacingLeft=0;spacingTop=0;spacingBottom=2;" parent="1" vertex="1">
          <mxGeometry x="326.62" y="170.61999999999995" width="45" height="62" as="geometry" />
        </mxCell>
        <mxCell id="ke4ovrecutf4wJZY0rZ7-23" value="nme:📛&#xa;val:🎚️&#xa;ctx:🏷️[]" style="text;strokeColor=none;fillColor=none;align=left;verticalAlign=top;spacingLeft=0;spacingRight=2;overflow=hidden;rotatable=0;points=[[0,0.5],[1,0.5]];portConstraint=eastwest;spacingTop=-5;labelBackgroundColor=none;fontFamily=Noto Emoji;" parent="ke4ovrecutf4wJZY0rZ7-22" vertex="1">
          <mxGeometry y="15" width="45" height="47" as="geometry" />
        </mxCell>
        <mxCell id="RekMIjmEzn26gBZNVYGz-55" style="edgeStyle=orthogonalEdgeStyle;shape=connector;rounded=0;orthogonalLoop=1;jettySize=auto;html=1;exitX=0;exitY=0.5;exitDx=0;exitDy=0;entryX=1;entryY=0.5;entryDx=0;entryDy=0;labelBackgroundColor=default;strokeColor=default;fontFamily=Helvetica;fontSize=11;fontColor=default;startArrow=diamond;startFill=1;endArrow=none;endFill=0;" parent="1" source="ke4ovrecutf4wJZY0rZ7-24" target="ke4ovrecutf4wJZY0rZ7-28" edge="1">
          <mxGeometry relative="1" as="geometry">
            <Array as="points">
              <mxPoint x="357" y="251.62" />
              <mxPoint x="357" y="237.62" />
              <mxPoint x="184" y="237.62" />
              <mxPoint x="184" y="270.62" />
              <mxPoint x="176" y="270.62" />
            </Array>
          </mxGeometry>
        </mxCell>
        <mxCell id="RekMIjmEzn26gBZNVYGz-56" style="edgeStyle=orthogonalEdgeStyle;shape=connector;rounded=0;orthogonalLoop=1;jettySize=auto;html=1;exitX=0;exitY=0.5;exitDx=0;exitDy=0;entryX=0.5;entryY=0;entryDx=0;entryDy=0;labelBackgroundColor=default;strokeColor=default;fontFamily=Helvetica;fontSize=11;fontColor=default;startArrow=diamond;startFill=1;endArrow=none;endFill=0;" parent="1" source="ke4ovrecutf4wJZY0rZ7-24" target="ke4ovrecutf4wJZY0rZ7-26" edge="1">
          <mxGeometry relative="1" as="geometry">
            <Array as="points">
              <mxPoint x="357" y="251.62" />
              <mxPoint x="357" y="237.62" />
              <mxPoint x="219" y="237.62" />
            </Array>
          </mxGeometry>
        </mxCell>
        <mxCell id="RekMIjmEzn26gBZNVYGz-57" style="edgeStyle=orthogonalEdgeStyle;shape=connector;rounded=0;orthogonalLoop=1;jettySize=auto;html=1;exitX=0;exitY=0.5;exitDx=0;exitDy=0;entryX=0.5;entryY=0;entryDx=0;entryDy=0;labelBackgroundColor=default;strokeColor=default;fontFamily=Helvetica;fontSize=11;fontColor=default;startArrow=diamond;startFill=1;endArrow=none;endFill=0;" parent="1" source="ke4ovrecutf4wJZY0rZ7-24" target="ke4ovrecutf4wJZY0rZ7-30" edge="1">
          <mxGeometry relative="1" as="geometry">
            <Array as="points">
              <mxPoint x="357" y="251.62" />
              <mxPoint x="357" y="237.62" />
              <mxPoint x="331" y="237.62" />
              <mxPoint x="331" y="241.62" />
            </Array>
          </mxGeometry>
        </mxCell>
        <mxCell id="ke4ovrecutf4wJZY0rZ7-24" value="&amp;lt;&amp;lt;oneof&amp;gt;&amp;gt;&lt;br&gt;🎚️&lt;b&gt;Val&lt;/b&gt;" style="html=1;spacingLeft=-5;labelBackgroundColor=none;fillColor=none;fontFamily=Noto Emoji;fontStyle=1;startSize=10;spacing=2;spacingTop=0;spacingBottom=3;" parent="1" vertex="1">
          <mxGeometry x="361.76" y="237.25" width="61.12" height="28.73" as="geometry" />
        </mxCell>
        <mxCell id="RekMIjmEzn26gBZNVYGz-127" style="edgeStyle=orthogonalEdgeStyle;shape=connector;rounded=0;orthogonalLoop=1;jettySize=auto;html=1;exitX=0.75;exitY=1;exitDx=0;exitDy=0;entryX=0;entryY=0.5;entryDx=0;entryDy=0;labelBackgroundColor=default;strokeColor=default;fontFamily=Helvetica;fontSize=11;fontColor=default;startArrow=diamond;startFill=1;endArrow=none;endFill=0;" parent="1" source="ke4ovrecutf4wJZY0rZ7-26" target="RekMIjmEzn26gBZNVYGz-19" edge="1">
          <mxGeometry relative="1" as="geometry">
            <Array as="points">
              <mxPoint x="234" y="274.62" />
              <mxPoint x="251" y="274.62" />
              <mxPoint x="251" y="249.62" />
            </Array>
          </mxGeometry>
        </mxCell>
        <mxCell id="RekMIjmEzn26gBZNVYGz-128" style="edgeStyle=orthogonalEdgeStyle;shape=connector;rounded=0;orthogonalLoop=1;jettySize=auto;html=1;exitX=0.75;exitY=1;exitDx=0;exitDy=0;entryX=0;entryY=0.5;entryDx=0;entryDy=0;labelBackgroundColor=default;strokeColor=default;fontFamily=Helvetica;fontSize=11;fontColor=default;startArrow=diamond;startFill=1;endArrow=none;endFill=0;" parent="1" source="ke4ovrecutf4wJZY0rZ7-26" target="RekMIjmEzn26gBZNVYGz-48" edge="1">
          <mxGeometry relative="1" as="geometry">
            <Array as="points">
              <mxPoint x="234" y="274.62" />
              <mxPoint x="251" y="274.62" />
              <mxPoint x="251" y="267.62" />
            </Array>
          </mxGeometry>
        </mxCell>
        <mxCell id="Tq5NTx9WP40M7A0pYZYg-3" style="edgeStyle=orthogonalEdgeStyle;rounded=0;orthogonalLoop=1;jettySize=auto;html=1;exitX=0.75;exitY=1;exitDx=0;exitDy=0;entryX=1;entryY=0.25;entryDx=0;entryDy=0;startArrow=diamond;startFill=1;endArrow=none;endFill=0;" parent="1" source="ke4ovrecutf4wJZY0rZ7-26" target="Tq5NTx9WP40M7A0pYZYg-2" edge="1">
          <mxGeometry relative="1" as="geometry">
            <Array as="points">
              <mxPoint x="234" y="275" />
            </Array>
          </mxGeometry>
        </mxCell>
        <mxCell id="ke4ovrecutf4wJZY0rZ7-26" value="&amp;lt;&amp;lt;oneof&amp;gt;&amp;gt;&lt;br&gt;🔤Txt" style="html=1;labelBackgroundColor=none;fillColor=none;fontFamily=Noto Emoji;fontStyle=1;startSize=10;spacing=2;spacingLeft=-1;spacingTop=0;spacingBottom=4;" parent="1" vertex="1">
          <mxGeometry x="191" y="242.36" width="57" height="27.52" as="geometry" />
        </mxCell>
        <mxCell id="RekMIjmEzn26gBZNVYGz-125" style="edgeStyle=orthogonalEdgeStyle;shape=connector;rounded=0;orthogonalLoop=1;jettySize=auto;html=1;exitX=1;exitY=0.75;exitDx=0;exitDy=0;entryX=0.5;entryY=0;entryDx=0;entryDy=0;labelBackgroundColor=default;strokeColor=default;fontFamily=Helvetica;fontSize=11;fontColor=default;startArrow=diamond;startFill=1;endArrow=none;endFill=0;" parent="1" source="ke4ovrecutf4wJZY0rZ7-28" target="RekMIjmEzn26gBZNVYGz-18" edge="1">
          <mxGeometry relative="1" as="geometry">
            <Array as="points">
              <mxPoint x="180" y="276.62" />
              <mxPoint x="180" y="287.62" />
              <mxPoint x="175" y="287.62" />
            </Array>
          </mxGeometry>
        </mxCell>
        <mxCell id="RekMIjmEzn26gBZNVYGz-126" style="edgeStyle=orthogonalEdgeStyle;shape=connector;rounded=0;orthogonalLoop=1;jettySize=auto;html=1;exitX=1;exitY=0.75;exitDx=0;exitDy=0;entryX=0.5;entryY=0;entryDx=0;entryDy=0;labelBackgroundColor=default;strokeColor=default;fontFamily=Helvetica;fontSize=11;fontColor=default;startArrow=diamond;startFill=1;endArrow=none;endFill=0;" parent="1" source="ke4ovrecutf4wJZY0rZ7-28" target="RekMIjmEzn26gBZNVYGz-17" edge="1">
          <mxGeometry relative="1" as="geometry">
            <Array as="points">
              <mxPoint x="180" y="276.62" />
              <mxPoint x="180" y="287.62" />
              <mxPoint x="137" y="287.62" />
            </Array>
          </mxGeometry>
        </mxCell>
        <mxCell id="RekMIjmEzn26gBZNVYGz-133" style="edgeStyle=orthogonalEdgeStyle;shape=connector;rounded=0;orthogonalLoop=1;jettySize=auto;html=1;exitX=1;exitY=0.75;exitDx=0;exitDy=0;entryX=0.5;entryY=0;entryDx=0;entryDy=0;labelBackgroundColor=default;strokeColor=default;fontFamily=Helvetica;fontSize=11;fontColor=default;startArrow=diamond;startFill=1;endArrow=none;endFill=0;" parent="1" source="ke4ovrecutf4wJZY0rZ7-28" target="RekMIjmEzn26gBZNVYGz-43" edge="1">
          <mxGeometry relative="1" as="geometry">
            <Array as="points">
              <mxPoint x="180" y="276.62" />
              <mxPoint x="180" y="287.62" />
              <mxPoint x="213" y="287.62" />
            </Array>
          </mxGeometry>
        </mxCell>
        <mxCell id="ke4ovrecutf4wJZY0rZ7-28" value="&amp;lt;&amp;lt;oneof&amp;gt;&amp;gt;&lt;br style=&quot;font-family: &amp;quot;Noto Emoji&amp;quot;;&quot;&gt;&lt;font face=&quot;Noto Emoji&quot;&gt;💯Num&lt;/font&gt;" style="html=1;labelBackgroundColor=none;fillColor=none;fontFamily=Times New Roman;fontStyle=1;startSize=10;spacing=2;spacingLeft=0;spacingTop=0;spacingBottom=2;" parent="1" vertex="1">
          <mxGeometry x="117" y="255.62" width="58.75" height="28" as="geometry" />
        </mxCell>
        <mxCell id="RekMIjmEzn26gBZNVYGz-130" style="edgeStyle=orthogonalEdgeStyle;shape=connector;rounded=0;orthogonalLoop=1;jettySize=auto;html=1;exitX=0.5;exitY=1;exitDx=0;exitDy=0;entryX=0.5;entryY=0;entryDx=0;entryDy=0;labelBackgroundColor=default;strokeColor=default;fontFamily=Helvetica;fontSize=11;fontColor=default;startArrow=diamond;startFill=1;endArrow=none;endFill=0;" parent="1" source="ke4ovrecutf4wJZY0rZ7-30" target="RekMIjmEzn26gBZNVYGz-50" edge="1">
          <mxGeometry relative="1" as="geometry">
            <Array as="points">
              <mxPoint x="323" y="286.62" />
              <mxPoint x="252" y="286.62" />
            </Array>
          </mxGeometry>
        </mxCell>
        <mxCell id="RekMIjmEzn26gBZNVYGz-131" style="edgeStyle=orthogonalEdgeStyle;shape=connector;rounded=0;orthogonalLoop=1;jettySize=auto;html=1;exitX=0.5;exitY=1;exitDx=0;exitDy=0;entryX=0.5;entryY=0;entryDx=0;entryDy=0;labelBackgroundColor=default;strokeColor=default;fontFamily=Helvetica;fontSize=11;fontColor=default;startArrow=diamond;startFill=1;endArrow=none;endFill=0;" parent="1" source="ke4ovrecutf4wJZY0rZ7-30" target="ke4ovrecutf4wJZY0rZ7-32" edge="1">
          <mxGeometry relative="1" as="geometry">
            <Array as="points">
              <mxPoint x="323" y="286.62" />
              <mxPoint x="290" y="286.62" />
            </Array>
          </mxGeometry>
        </mxCell>
        <mxCell id="RekMIjmEzn26gBZNVYGz-132" style="edgeStyle=orthogonalEdgeStyle;shape=connector;rounded=0;orthogonalLoop=1;jettySize=auto;html=1;exitX=0.5;exitY=1;exitDx=0;exitDy=0;entryX=0.75;entryY=0;entryDx=0;entryDy=0;labelBackgroundColor=default;strokeColor=default;fontFamily=Helvetica;fontSize=11;fontColor=default;startArrow=diamond;startFill=1;endArrow=none;endFill=0;" parent="1" source="ke4ovrecutf4wJZY0rZ7-30" target="ke4ovrecutf4wJZY0rZ7-34" edge="1">
          <mxGeometry relative="1" as="geometry">
            <Array as="points">
              <mxPoint x="323" y="286.62" />
              <mxPoint x="331" y="286.62" />
            </Array>
          </mxGeometry>
        </mxCell>
        <mxCell id="RekMIjmEzn26gBZNVYGz-134" style="edgeStyle=orthogonalEdgeStyle;shape=connector;rounded=0;orthogonalLoop=1;jettySize=auto;html=1;exitX=0.5;exitY=1;exitDx=0;exitDy=0;entryX=0.5;entryY=0;entryDx=0;entryDy=0;labelBackgroundColor=default;strokeColor=default;fontFamily=Helvetica;fontSize=11;fontColor=default;startArrow=diamond;startFill=1;endArrow=none;endFill=0;" parent="1" source="ke4ovrecutf4wJZY0rZ7-30" target="RekMIjmEzn26gBZNVYGz-67" edge="1">
          <mxGeometry relative="1" as="geometry">
            <Array as="points">
              <mxPoint x="323" y="274.62" />
              <mxPoint x="358" y="274.62" />
            </Array>
          </mxGeometry>
        </mxCell>
        <mxCell id="RekMIjmEzn26gBZNVYGz-135" style="edgeStyle=orthogonalEdgeStyle;shape=connector;rounded=0;orthogonalLoop=1;jettySize=auto;html=1;exitX=0.5;exitY=1;exitDx=0;exitDy=0;entryX=0.5;entryY=0;entryDx=0;entryDy=0;labelBackgroundColor=default;strokeColor=default;fontFamily=Helvetica;fontSize=11;fontColor=default;startArrow=diamond;startFill=1;endArrow=none;endFill=0;" parent="1" source="ke4ovrecutf4wJZY0rZ7-30" target="RekMIjmEzn26gBZNVYGz-69" edge="1">
          <mxGeometry relative="1" as="geometry">
            <Array as="points">
              <mxPoint x="323" y="274.62" />
              <mxPoint x="396" y="274.62" />
            </Array>
          </mxGeometry>
        </mxCell>
        <mxCell id="RekMIjmEzn26gBZNVYGz-136" style="edgeStyle=orthogonalEdgeStyle;shape=connector;rounded=0;orthogonalLoop=1;jettySize=auto;html=1;exitX=0.5;exitY=1;exitDx=0;exitDy=0;entryX=0.5;entryY=0;entryDx=0;entryDy=0;labelBackgroundColor=default;strokeColor=default;fontFamily=Helvetica;fontSize=11;fontColor=default;startArrow=diamond;startFill=1;endArrow=none;endFill=0;" parent="1" source="ke4ovrecutf4wJZY0rZ7-30" target="ke4ovrecutf4wJZY0rZ7-53" edge="1">
          <mxGeometry relative="1" as="geometry">
            <Array as="points">
              <mxPoint x="323" y="274.62" />
              <mxPoint x="443" y="274.62" />
              <mxPoint x="443" y="279.62" />
            </Array>
          </mxGeometry>
        </mxCell>
        <mxCell id="ke4ovrecutf4wJZY0rZ7-30" value="&amp;lt;&amp;lt;oneof&amp;gt;&amp;gt;&lt;br&gt;&lt;font face=&quot;Noto Emoji&quot;&gt;🌐&lt;/font&gt;Geo" style="html=1;labelBackgroundColor=none;fillColor=none;fontFamily=Times New Roman;fontStyle=1;startSize=10;spacing=2;spacingLeft=0;spacingTop=0;spacingBottom=2;" parent="1" vertex="1">
          <mxGeometry x="295" y="241.86" width="56.12" height="28.52" as="geometry" />
        </mxCell>
        <mxCell id="ke4ovrecutf4wJZY0rZ7-32" value="&lt;b&gt;&lt;font face=&quot;Noto Emoji&quot;&gt;🐚&lt;/font&gt;Brp&lt;/b&gt;" style="html=1;labelBackgroundColor=none;fillColor=none;fontFamily=Times New Roman;fontStyle=1;startSize=13;spacing=2;spacingLeft=-2;spacingTop=0;spacingBottom=1;" parent="1" vertex="1">
          <mxGeometry x="272" y="290.62" width="37" height="17" as="geometry" />
        </mxCell>
        <mxCell id="ke4ovrecutf4wJZY0rZ7-34" value="&lt;b&gt;...&lt;/b&gt;" style="html=1;labelBackgroundColor=none;fillColor=none;fontFamily=Times New Roman;fontStyle=1;startSize=13;spacing=2;spacingLeft=0;spacingTop=0;spacingBottom=4;" parent="1" vertex="1">
          <mxGeometry x="311" y="290.62" width="26" height="17" as="geometry" />
        </mxCell>
        <mxCell id="RekMIjmEzn26gBZNVYGz-87" style="edgeStyle=orthogonalEdgeStyle;shape=connector;rounded=0;orthogonalLoop=1;jettySize=auto;html=1;exitX=0.884;exitY=0;exitDx=0;exitDy=0;entryX=0;entryY=0.5;entryDx=0;entryDy=0;labelBackgroundColor=default;strokeColor=default;fontFamily=Helvetica;fontSize=11;fontColor=default;startArrow=diamond;startFill=1;endArrow=none;endFill=0;exitPerimeter=0;" parent="1" source="ke4ovrecutf4wJZY0rZ7-45" target="RekMIjmEzn26gBZNVYGz-10" edge="1">
          <mxGeometry relative="1" as="geometry">
            <Array as="points">
              <mxPoint x="515" y="225.62" />
              <mxPoint x="527" y="225.62" />
              <mxPoint x="527" y="110.62" />
            </Array>
          </mxGeometry>
        </mxCell>
        <mxCell id="RekMIjmEzn26gBZNVYGz-101" style="edgeStyle=orthogonalEdgeStyle;shape=connector;rounded=0;orthogonalLoop=1;jettySize=auto;html=1;exitX=0.885;exitY=0.006;exitDx=0;exitDy=0;entryX=0.002;entryY=0.26;entryDx=0;entryDy=0;entryPerimeter=0;labelBackgroundColor=default;strokeColor=default;fontFamily=Helvetica;fontSize=11;fontColor=default;startArrow=diamond;startFill=1;endArrow=none;endFill=0;exitPerimeter=0;" parent="1" source="ke4ovrecutf4wJZY0rZ7-45" target="RekMIjmEzn26gBZNVYGz-8" edge="1">
          <mxGeometry relative="1" as="geometry">
            <Array as="points">
              <mxPoint x="515" y="225.62" />
              <mxPoint x="527" y="225.62" />
              <mxPoint x="527" y="192.62" />
            </Array>
          </mxGeometry>
        </mxCell>
        <mxCell id="RekMIjmEzn26gBZNVYGz-102" style="edgeStyle=orthogonalEdgeStyle;shape=connector;rounded=0;orthogonalLoop=1;jettySize=auto;html=1;exitX=0.888;exitY=0.004;exitDx=0;exitDy=0;entryX=-0.007;entryY=0.289;entryDx=0;entryDy=0;entryPerimeter=0;labelBackgroundColor=default;strokeColor=default;fontFamily=Helvetica;fontSize=11;fontColor=default;startArrow=diamond;startFill=1;endArrow=none;endFill=0;exitPerimeter=0;" parent="1" source="ke4ovrecutf4wJZY0rZ7-45" target="RekMIjmEzn26gBZNVYGz-6" edge="1">
          <mxGeometry relative="1" as="geometry">
            <Array as="points">
              <mxPoint x="516" y="225.62" />
              <mxPoint x="527" y="225.62" />
              <mxPoint x="527" y="294.62" />
            </Array>
          </mxGeometry>
        </mxCell>
        <mxCell id="ke4ovrecutf4wJZY0rZ7-45" value="🏠Rep" style="swimlane;fontStyle=1;childLayout=stackLayout;horizontal=1;startSize=16;fillColor=none;horizontalStack=0;resizeParent=1;resizeParentMax=0;resizeLast=0;collapsible=0;marginBottom=0;swimlaneLine=1;labelBackgroundColor=none;fontFamily=Noto Emoji;spacing=2;spacingLeft=0;spacingTop=0;spacingBottom=2;" parent="1" vertex="1">
          <mxGeometry x="472.0000000000001" y="229.62" width="49" height="74" as="geometry" />
        </mxCell>
        <mxCell id="ke4ovrecutf4wJZY0rZ7-46" value="bdy:🔟[]&#xa;enc:🔑&#xa;slz:⚞&#xa;lng:💬" style="text;strokeColor=none;fillColor=none;align=left;verticalAlign=top;spacingLeft=0;spacingRight=1;overflow=hidden;rotatable=0;points=[[0,0.5],[1,0.5]];portConstraint=eastwest;spacingTop=-6;labelBackgroundColor=none;fontFamily=Noto Emoji;" parent="ke4ovrecutf4wJZY0rZ7-45" vertex="1">
          <mxGeometry y="16" width="49" height="58" as="geometry" />
        </mxCell>
        <mxCell id="ke4ovrecutf4wJZY0rZ7-48" value="🏘️Typ" style="swimlane;fontStyle=1;childLayout=stackLayout;horizontal=1;startSize=15;fillColor=none;horizontalStack=0;resizeParent=1;resizeParentMax=0;resizeLast=0;collapsible=0;marginBottom=0;spacingLeft=0;labelBackgroundColor=none;fontFamily=Noto Emoji;spacing=2;spacingTop=0;spacingBottom=2;" parent="1" vertex="1">
          <mxGeometry x="428" y="95.62" width="92" height="59" as="geometry" />
        </mxCell>
        <mxCell id="ke4ovrecutf4wJZY0rZ7-49" value="plas_hsh:#&#xa;def_pla_hsh:#&#xa;mods_plas_hsh:#" style="text;strokeColor=none;fillColor=none;align=left;verticalAlign=top;spacingLeft=0;spacingRight=1;overflow=hidden;rotatable=0;points=[[0,0.5],[1,0.5]];portConstraint=eastwest;spacingTop=-7;labelBackgroundColor=none;fontFamily=Noto Emoji;collapsible=0;" parent="ke4ovrecutf4wJZY0rZ7-48" vertex="1">
          <mxGeometry y="15" width="92" height="44" as="geometry" />
        </mxCell>
        <mxCell id="RekMIjmEzn26gBZNVYGz-81" style="edgeStyle=orthogonalEdgeStyle;shape=connector;rounded=0;orthogonalLoop=1;jettySize=auto;html=1;exitX=0.185;exitY=1.009;exitDx=0;exitDy=0;entryX=0.5;entryY=0;entryDx=0;entryDy=0;labelBackgroundColor=default;strokeColor=default;fontFamily=Helvetica;fontSize=11;fontColor=default;startArrow=diamond;startFill=1;endArrow=none;endFill=0;exitPerimeter=0;" parent="1" source="ke4ovrecutf4wJZY0rZ7-52" target="ke4ovrecutf4wJZY0rZ7-53" edge="1">
          <mxGeometry relative="1" as="geometry">
            <Array as="points">
              <mxPoint x="443" y="280" />
            </Array>
          </mxGeometry>
        </mxCell>
        <mxCell id="ke4ovrecutf4wJZY0rZ7-51" value="⌂Obj" style="swimlane;fontStyle=1;childLayout=stackLayout;horizontal=1;startSize=13;fillColor=none;horizontalStack=0;resizeParent=1;resizeParentMax=0;resizeLast=0;collapsible=0;marginBottom=0;spacingLeft=0;labelBackgroundColor=none;fontFamily=Noto Emoji;spacingBottom=4;spacing=2;spacingTop=0;" parent="1" vertex="1">
          <mxGeometry x="428.00000000000006" y="157.12" width="81" height="57" as="geometry" />
        </mxCell>
        <mxCell id="ke4ovrecutf4wJZY0rZ7-52" value="typ_plas_hsh:#&#xa;sbj_id:🆔&#xa;pln:◳" style="text;strokeColor=none;fillColor=none;align=left;verticalAlign=top;spacingLeft=0;spacingRight=0;overflow=hidden;rotatable=0;points=[[0,0.5],[1,0.5]];portConstraint=eastwest;spacingTop=-7;labelBackgroundColor=none;fontFamily=Noto Emoji;spacing=2;" parent="ke4ovrecutf4wJZY0rZ7-51" vertex="1">
          <mxGeometry y="13" width="81" height="44" as="geometry" />
        </mxCell>
        <mxCell id="ke4ovrecutf4wJZY0rZ7-53" value="◳Pln" style="swimlane;fontStyle=1;childLayout=stackLayout;horizontal=1;startSize=12;fillColor=none;horizontalStack=0;resizeParent=1;resizeParentMax=0;resizeLast=0;collapsible=0;marginBottom=0;spacingLeft=0;labelBackgroundColor=none;fontFamily=Noto Emoji;spacing=2;spacingTop=0;spacingBottom=2;" parent="1" vertex="1">
          <mxGeometry x="416.62" y="279.62" width="42" height="56" as="geometry" />
        </mxCell>
        <mxCell id="ke4ovrecutf4wJZY0rZ7-54" value="org:✴️&#xa;xAx:↗️&#xa;yAx:↗️" style="text;strokeColor=none;fillColor=none;align=left;verticalAlign=top;spacingLeft=0;spacingRight=0;overflow=hidden;rotatable=0;points=[[0,0.5],[1,0.5]];portConstraint=eastwest;spacingTop=-6;labelBackgroundColor=none;fontFamily=Noto Emoji;spacing=2;" parent="ke4ovrecutf4wJZY0rZ7-53" vertex="1">
          <mxGeometry y="12" width="42" height="44" as="geometry" />
        </mxCell>
        <mxCell id="ke4ovrecutf4wJZY0rZ7-67" value="&lt;font style=&quot;font-size: 14px&quot;&gt;Service level&lt;/font&gt;" style="text;html=1;strokeColor=none;fillColor=none;align=center;verticalAlign=middle;whiteSpace=wrap;rounded=0;horizontal=0;fontStyle=1;fontSize=14;labelBackgroundColor=none;fontFamily=Times New Roman;rotation=90;" parent="1" vertex="1">
          <mxGeometry x="41.75" y="-37.879999999999995" width="16.5" height="94" as="geometry" />
        </mxCell>
        <mxCell id="RekMIjmEzn26gBZNVYGz-28" style="edgeStyle=orthogonalEdgeStyle;shape=connector;rounded=0;orthogonalLoop=1;jettySize=auto;html=1;exitX=0.25;exitY=0;exitDx=0;exitDy=0;entryX=0.75;entryY=0;entryDx=0;entryDy=0;labelBackgroundColor=default;strokeColor=default;fontFamily=Helvetica;fontSize=11;fontColor=default;startArrow=diamond;startFill=1;endArrow=none;endFill=0;" parent="1" source="ke4ovrecutf4wJZY0rZ7-69" target="ke4ovrecutf4wJZY0rZ7-14" edge="1">
          <mxGeometry relative="1" as="geometry">
            <Array as="points">
              <mxPoint x="382" y="44" />
              <mxPoint x="357" y="44" />
            </Array>
          </mxGeometry>
        </mxCell>
        <mxCell id="ke4ovrecutf4wJZY0rZ7-69" value="🤝Dcn" style="swimlane;fontStyle=1;childLayout=stackLayout;horizontal=1;startSize=12;fillColor=none;horizontalStack=0;resizeParent=1;resizeParentMax=0;resizeLast=0;collapsible=0;marginBottom=0;spacingLeft=0;labelBackgroundColor=none;fontFamily=Noto Emoji;spacing=2;spacingTop=0;spacingBottom=2;" parent="1" vertex="1">
          <mxGeometry x="372.62" y="48.11" width="38.38" height="42" as="geometry" />
        </mxCell>
        <mxCell id="ke4ovrecutf4wJZY0rZ7-70" value="id:🆔&#xa;pla:🛠️" style="text;strokeColor=none;fillColor=none;align=left;verticalAlign=top;spacingLeft=0;spacingRight=0;overflow=hidden;rotatable=0;points=[[0,0.5],[1,0.5]];portConstraint=eastwest;spacingTop=-6;labelBackgroundColor=none;fontFamily=Noto Emoji;" parent="ke4ovrecutf4wJZY0rZ7-69" vertex="1">
          <mxGeometry y="12" width="38.38" height="30" as="geometry" />
        </mxCell>
        <mxCell id="ke4ovrecutf4wJZY0rZ7-72" value="&lt;font style=&quot;font-size: 14px&quot;&gt;Data level&lt;/font&gt;" style="text;html=1;strokeColor=none;fillColor=none;align=center;verticalAlign=middle;whiteSpace=wrap;rounded=0;horizontal=0;fontStyle=1;fontSize=14;labelBackgroundColor=none;fontFamily=Times New Roman;rotation=90;" parent="1" vertex="1">
          <mxGeometry x="341.12" y="-239" width="13" height="494.25" as="geometry" />
        </mxCell>
        <mxCell id="ke4ovrecutf4wJZY0rZ7-80" value="🏗️Def" style="swimlane;fontStyle=1;align=center;verticalAlign=middle;childLayout=stackLayout;horizontal=1;startSize=13;horizontalStack=0;resizeParent=1;resizeParentMax=0;resizeLast=0;collapsible=0;marginBottom=0;strokeColor=default;labelBackgroundColor=none;fillColor=none;fontFamily=Noto Emoji;spacingLeft=0;spacingTop=0;spacingBottom=2;spacing=2;" parent="1" vertex="1">
          <mxGeometry x="693" y="102.12" width="103" height="47" as="geometry" />
        </mxCell>
        <mxCell id="ke4ovrecutf4wJZY0rZ7-81" value="" style="line;strokeWidth=1;fillColor=none;align=left;verticalAlign=middle;spacingTop=-1;spacingLeft=3;spacingRight=3;rotatable=0;labelPosition=right;points=[];portConstraint=eastwest;labelBackgroundColor=none;fontFamily=Times New Roman;" parent="ke4ovrecutf4wJZY0rZ7-80" vertex="1">
          <mxGeometry y="13" width="103" height="8" as="geometry" />
        </mxCell>
        <mxCell id="RekMIjmEzn26gBZNVYGz-142" value="" style="endArrow=none;html=1;rounded=0;labelBackgroundColor=default;strokeColor=default;fontFamily=Helvetica;fontSize=11;fontColor=default;shape=connector;entryX=0;entryY=0.035;entryDx=0;entryDy=0;entryPerimeter=0;" parent="ke4ovrecutf4wJZY0rZ7-80" target="ke4ovrecutf4wJZY0rZ7-82" edge="1">
          <mxGeometry width="50" height="50" relative="1" as="geometry">
            <mxPoint x="-4" y="21.879999999999995" as="sourcePoint" />
            <mxPoint x="1" y="21.879999999999995" as="targetPoint" />
          </mxGeometry>
        </mxCell>
        <mxCell id="ke4ovrecutf4wJZY0rZ7-82" value="GetRep(🗃️[]):🏠&#xa;GetCon(🏠,🗃️[]):◳" style="text;strokeColor=none;fillColor=none;align=left;verticalAlign=top;spacingLeft=0;spacingRight=0;overflow=hidden;rotatable=0;points=[[0,0.5],[1,0.5]];portConstraint=eastwest;labelBackgroundColor=none;spacingTop=-10;fontFamily=Noto Emoji;" parent="ke4ovrecutf4wJZY0rZ7-80" vertex="1">
          <mxGeometry y="21" width="103" height="26" as="geometry" />
        </mxCell>
        <mxCell id="RekMIjmEzn26gBZNVYGz-139" style="edgeStyle=orthogonalEdgeStyle;shape=connector;rounded=0;orthogonalLoop=1;jettySize=auto;html=1;exitX=0;exitY=0.5;exitDx=0;exitDy=0;entryX=1.008;entryY=0.263;entryDx=0;entryDy=0;entryPerimeter=0;labelBackgroundColor=default;strokeColor=default;fontFamily=Helvetica;fontSize=11;fontColor=default;startArrow=none;startFill=0;endArrow=block;endFill=0;" parent="1" source="ke4ovrecutf4wJZY0rZ7-84" target="RekMIjmEzn26gBZNVYGz-96" edge="1">
          <mxGeometry relative="1" as="geometry">
            <Array as="points">
              <mxPoint x="689" y="45" />
              <mxPoint x="689" y="265" />
            </Array>
            <mxPoint x="672.9235000000001" y="265.554" as="targetPoint" />
          </mxGeometry>
        </mxCell>
        <mxCell id="ke4ovrecutf4wJZY0rZ7-84" value="➡️Trf" style="swimlane;fontStyle=1;align=center;verticalAlign=middle;childLayout=stackLayout;horizontal=1;startSize=16;horizontalStack=0;resizeParent=1;resizeParentMax=0;resizeLast=0;collapsible=0;marginBottom=0;strokeColor=default;labelBackgroundColor=none;fillColor=none;fontFamily=Noto Emoji;spacingLeft=0;spacingTop=1;spacingBottom=2;spacing=2;" parent="1" vertex="1">
          <mxGeometry x="693" y="26.619999999999997" width="98" height="36" as="geometry" />
        </mxCell>
        <mxCell id="ke4ovrecutf4wJZY0rZ7-85" value="" style="line;strokeWidth=1;fillColor=none;align=left;verticalAlign=middle;spacingTop=-1;spacingLeft=3;spacingRight=3;rotatable=0;labelPosition=right;points=[];portConstraint=eastwest;labelBackgroundColor=none;fontFamily=Times New Roman;" parent="ke4ovrecutf4wJZY0rZ7-84" vertex="1">
          <mxGeometry y="16" width="98" height="8" as="geometry" />
        </mxCell>
        <mxCell id="ke4ovrecutf4wJZY0rZ7-86" value="GetLyt(🖧,🗃️[]):🖧" style="text;strokeColor=none;fillColor=none;align=left;verticalAlign=top;spacingLeft=0;spacingRight=0;overflow=hidden;rotatable=0;points=[[0,0.5],[1,0.5]];portConstraint=eastwest;labelBackgroundColor=none;spacingTop=-10;fontFamily=Noto Emoji;" parent="ke4ovrecutf4wJZY0rZ7-84" vertex="1">
          <mxGeometry y="24" width="98" height="12" as="geometry" />
        </mxCell>
        <mxCell id="ke4ovrecutf4wJZY0rZ7-87" value="⚙️Mod" style="swimlane;fontStyle=1;align=center;verticalAlign=middle;childLayout=stackLayout;horizontal=1;startSize=13;horizontalStack=0;resizeParent=1;resizeParentMax=0;resizeLast=0;collapsible=0;marginBottom=0;strokeColor=default;labelBackgroundColor=none;fillColor=none;fontFamily=Noto Emoji;spacingLeft=0;spacingTop=0;spacingBottom=2;spacing=2;" parent="1" vertex="1">
          <mxGeometry x="693" y="151.62" width="106" height="37" as="geometry" />
        </mxCell>
        <mxCell id="ke4ovrecutf4wJZY0rZ7-88" value="" style="line;strokeWidth=1;fillColor=none;align=left;verticalAlign=middle;spacingTop=-1;spacingLeft=3;spacingRight=3;rotatable=0;labelPosition=right;points=[];portConstraint=eastwest;labelBackgroundColor=none;fontFamily=Times New Roman;" parent="ke4ovrecutf4wJZY0rZ7-87" vertex="1">
          <mxGeometry y="13" width="106" height="8" as="geometry" />
        </mxCell>
        <mxCell id="RekMIjmEzn26gBZNVYGz-143" value="" style="endArrow=none;html=1;rounded=0;labelBackgroundColor=default;strokeColor=default;fontFamily=Helvetica;fontSize=11;fontColor=default;shape=connector;entryX=0;entryY=0.035;entryDx=0;entryDy=0;entryPerimeter=0;" parent="ke4ovrecutf4wJZY0rZ7-87" edge="1">
          <mxGeometry width="50" height="50" relative="1" as="geometry">
            <mxPoint x="-4" y="20.879999999999995" as="sourcePoint" />
            <mxPoint y="21" as="targetPoint" />
          </mxGeometry>
        </mxCell>
        <mxCell id="ke4ovrecutf4wJZY0rZ7-89" value="GetRep(🏠,🗃️[]):🏠" style="text;strokeColor=none;fillColor=none;align=left;verticalAlign=top;spacingLeft=0;spacingRight=0;overflow=hidden;rotatable=0;points=[[0,0.5],[1,0.5]];portConstraint=eastwest;labelBackgroundColor=none;spacingTop=-8;fontFamily=Noto Emoji;" parent="ke4ovrecutf4wJZY0rZ7-87" vertex="1">
          <mxGeometry y="21" width="106" height="16" as="geometry" />
        </mxCell>
        <mxCell id="ke4ovrecutf4wJZY0rZ7-94" value="&lt;font style=&quot;font-size: 14px&quot;&gt;Script level&lt;/font&gt;" style="text;html=1;strokeColor=none;fillColor=none;align=center;verticalAlign=middle;whiteSpace=wrap;rounded=0;horizontal=0;fontStyle=1;fontSize=14;labelBackgroundColor=none;fontFamily=Times New Roman;rotation=90;" parent="1" vertex="1">
          <mxGeometry x="731.03" y="-44.78" width="12.5" height="105.81" as="geometry" />
        </mxCell>
        <mxCell id="ke4ovrecutf4wJZY0rZ7-97" value="🏷️Scp" style="swimlane;fontStyle=1;childLayout=stackLayout;horizontal=1;startSize=16;fillColor=none;horizontalStack=0;resizeParent=1;resizeParentMax=0;resizeLast=0;collapsible=0;marginBottom=0;labelBackgroundColor=none;fontFamily=Noto Emoji;spacingLeft=0;spacing=2;spacingTop=0;spacingBottom=2;" parent="1" vertex="1">
          <mxGeometry x="374" y="156.62" width="48" height="46" as="geometry" />
        </mxCell>
        <mxCell id="ke4ovrecutf4wJZY0rZ7-98" value="nme:📛&#xa;ordr:🔢" style="text;strokeColor=none;fillColor=none;align=left;verticalAlign=top;spacingLeft=0;spacingRight=0;overflow=hidden;rotatable=0;points=[[0,0.5],[1,0.5]];portConstraint=eastwest;spacingTop=-6;labelBackgroundColor=none;fontFamily=Noto Emoji;" parent="ke4ovrecutf4wJZY0rZ7-97" vertex="1">
          <mxGeometry y="16" width="48" height="30" as="geometry" />
        </mxCell>
        <mxCell id="ke4ovrecutf4wJZY0rZ7-100" value="🗓️Sme" style="swimlane;fontStyle=1;align=center;verticalAlign=middle;childLayout=stackLayout;horizontal=1;startSize=15;horizontalStack=0;resizeParent=1;resizeParentMax=0;resizeLast=0;collapsible=0;marginBottom=0;strokeColor=default;labelBackgroundColor=none;fillColor=none;fontFamily=Noto Emoji;spacingLeft=0;spacingTop=0;spacingBottom=1;spacing=2;" parent="1" vertex="1">
          <mxGeometry x="693" y="64.12" width="98" height="36" as="geometry" />
        </mxCell>
        <mxCell id="ke4ovrecutf4wJZY0rZ7-101" value="" style="line;strokeWidth=1;fillColor=none;align=left;verticalAlign=middle;spacingTop=-1;spacingLeft=3;spacingRight=3;rotatable=0;labelPosition=right;points=[];portConstraint=eastwest;labelBackgroundColor=none;fontFamily=Times New Roman;" parent="ke4ovrecutf4wJZY0rZ7-100" vertex="1">
          <mxGeometry y="15" width="98" height="8" as="geometry" />
        </mxCell>
        <mxCell id="ke4ovrecutf4wJZY0rZ7-102" value="GetArr(🗃️[]):🎞️" style="text;strokeColor=none;fillColor=none;align=left;verticalAlign=top;spacingLeft=0;spacingRight=0;overflow=hidden;rotatable=0;points=[[0,0.5],[1,0.5]];portConstraint=eastwest;labelBackgroundColor=none;spacingTop=-10;fontFamily=Noto Emoji;" parent="ke4ovrecutf4wJZY0rZ7-100" vertex="1">
          <mxGeometry y="23" width="98" height="13" as="geometry" />
        </mxCell>
        <mxCell id="ke4ovrecutf4wJZY0rZ7-104" value="..." style="swimlane;fontStyle=1;align=center;verticalAlign=middle;childLayout=stackLayout;horizontal=1;startSize=12;horizontalStack=0;resizeParent=1;resizeParentMax=0;resizeLast=0;collapsible=0;marginBottom=0;strokeColor=default;labelBackgroundColor=none;fillColor=none;fontFamily=Times New Roman;spacingBottom=6;" parent="1" vertex="1">
          <mxGeometry x="693" y="308.62" width="19" height="31" as="geometry">
            <mxRectangle x="1015" y="660" width="45" height="27" as="alternateBounds" />
          </mxGeometry>
        </mxCell>
        <mxCell id="ke4ovrecutf4wJZY0rZ7-105" value="" style="line;strokeWidth=1;fillColor=none;align=left;verticalAlign=middle;spacingTop=-1;spacingLeft=3;spacingRight=3;rotatable=0;labelPosition=right;points=[];portConstraint=eastwest;labelBackgroundColor=none;fontFamily=Times New Roman;" parent="ke4ovrecutf4wJZY0rZ7-104" vertex="1">
          <mxGeometry y="12" width="19" height="8" as="geometry" />
        </mxCell>
        <mxCell id="ke4ovrecutf4wJZY0rZ7-106" value="..." style="text;strokeColor=none;fillColor=none;align=center;verticalAlign=top;spacingLeft=0;spacingRight=0;overflow=hidden;rotatable=0;points=[[0,0.5],[1,0.5]];portConstraint=eastwest;labelBackgroundColor=none;fontFamily=Times New Roman;spacingTop=-14;" parent="ke4ovrecutf4wJZY0rZ7-104" vertex="1">
          <mxGeometry y="20" width="19" height="11" as="geometry" />
        </mxCell>
        <mxCell id="RekMIjmEzn26gBZNVYGz-83" style="edgeStyle=orthogonalEdgeStyle;shape=connector;rounded=0;orthogonalLoop=1;jettySize=auto;html=1;exitX=0.026;exitY=0.984;exitDx=0;exitDy=0;entryX=0;entryY=0.5;entryDx=0;entryDy=0;labelBackgroundColor=default;strokeColor=default;fontFamily=Helvetica;fontSize=11;fontColor=default;startArrow=none;startFill=0;endArrow=classic;endFill=1;exitPerimeter=0;" parent="1" source="ke4ovrecutf4wJZY0rZ7-124" target="ke4ovrecutf4wJZY0rZ7-125" edge="1">
          <mxGeometry relative="1" as="geometry">
            <Array as="points">
              <mxPoint x="8" y="128" />
              <mxPoint x="19" y="128" />
            </Array>
          </mxGeometry>
        </mxCell>
        <mxCell id="ke4ovrecutf4wJZY0rZ7-122" value="🏙️DsnSrv🛎️" style="swimlane;fontStyle=1;align=center;verticalAlign=middle;childLayout=stackLayout;horizontal=1;startSize=14;horizontalStack=0;resizeParent=1;resizeParentMax=0;resizeLast=0;collapsible=0;marginBottom=0;strokeColor=default;labelBackgroundColor=none;fillColor=none;fontFamily=Noto Emoji;spacing=2;spacingLeft=0;spacingTop=0;spacingBottom=2;" parent="1" vertex="1">
          <mxGeometry x="6" y="32" width="85" height="34" as="geometry" />
        </mxCell>
        <mxCell id="ke4ovrecutf4wJZY0rZ7-123" value="" style="line;strokeWidth=1;fillColor=none;align=left;verticalAlign=middle;spacingTop=-1;spacingLeft=3;spacingRight=3;rotatable=0;labelPosition=right;points=[];portConstraint=eastwest;labelBackgroundColor=none;fontFamily=Times New Roman;" parent="ke4ovrecutf4wJZY0rZ7-122" vertex="1">
          <mxGeometry y="14" width="85" height="8" as="geometry" />
        </mxCell>
        <mxCell id="ke4ovrecutf4wJZY0rZ7-124" value="Dsn(DsnRqt):🏙️" style="text;strokeColor=none;fillColor=none;align=left;verticalAlign=top;spacingLeft=0;spacingRight=0;overflow=hidden;rotatable=0;points=[[0,0.5],[1,0.5]];portConstraint=eastwest;labelBackgroundColor=none;spacingTop=-11;fontFamily=Noto Emoji;" parent="ke4ovrecutf4wJZY0rZ7-122" vertex="1">
          <mxGeometry y="22" width="85" height="12" as="geometry" />
        </mxCell>
        <mxCell id="RekMIjmEzn26gBZNVYGz-84" style="edgeStyle=orthogonalEdgeStyle;shape=connector;rounded=0;orthogonalLoop=1;jettySize=auto;html=1;exitX=1;exitY=0.5;exitDx=0;exitDy=0;entryX=0.25;entryY=0;entryDx=0;entryDy=0;labelBackgroundColor=default;strokeColor=default;fontFamily=Helvetica;fontSize=11;fontColor=default;startArrow=diamond;startFill=1;endArrow=none;endFill=0;" parent="1" source="ke4ovrecutf4wJZY0rZ7-125" target="ke4ovrecutf4wJZY0rZ7-135" edge="1">
          <mxGeometry relative="1" as="geometry">
            <Array as="points">
              <mxPoint x="93" y="128" />
              <mxPoint x="93" y="26" />
              <mxPoint x="137" y="26" />
            </Array>
          </mxGeometry>
        </mxCell>
        <mxCell id="RekMIjmEzn26gBZNVYGz-85" style="edgeStyle=orthogonalEdgeStyle;shape=connector;rounded=0;orthogonalLoop=1;jettySize=auto;html=1;exitX=1;exitY=0.5;exitDx=0;exitDy=0;entryX=0.25;entryY=0;entryDx=0;entryDy=0;labelBackgroundColor=default;strokeColor=default;fontFamily=Helvetica;fontSize=11;fontColor=default;startArrow=diamond;startFill=1;endArrow=none;endFill=0;" parent="1" source="ke4ovrecutf4wJZY0rZ7-125" target="ke4ovrecutf4wJZY0rZ7-133" edge="1">
          <mxGeometry relative="1" as="geometry">
            <Array as="points">
              <mxPoint x="93" y="128" />
              <mxPoint x="93" y="26" />
              <mxPoint x="216" y="26" />
            </Array>
          </mxGeometry>
        </mxCell>
        <mxCell id="ke4ovrecutf4wJZY0rZ7-125" value="🏙️DsnRqt🙋" style="swimlane;fontStyle=1;childLayout=stackLayout;horizontal=1;startSize=16;fillColor=none;horizontalStack=0;resizeParent=1;resizeParentMax=0;resizeLast=0;collapsible=0;marginBottom=0;labelBackgroundColor=none;fontFamily=Noto Emoji;spacing=2;spacingLeft=0;spacingTop=0;spacingBottom=4;" parent="1" vertex="1">
          <mxGeometry x="19" y="69.62" width="70.18" height="117" as="geometry" />
        </mxCell>
        <mxCell id="ke4ovrecutf4wJZY0rZ7-126" value="sme_pln:🛠️&#xa;spcs:📄[]&#xa;prts:☐[]&#xa;knts:🪢[]&#xa;gnes:🧬[]&#xa;init_lyt:🖧&#xa;trg_lng:💬" style="text;strokeColor=none;fillColor=none;align=left;verticalAlign=top;spacingLeft=0;spacingRight=0;overflow=hidden;rotatable=0;points=[[0,0.5],[1,0.5]];portConstraint=eastwest;spacingTop=-6;labelBackgroundColor=none;fontFamily=Noto Emoji;" parent="ke4ovrecutf4wJZY0rZ7-125" vertex="1">
          <mxGeometry y="16" width="70.18" height="101" as="geometry" />
        </mxCell>
        <mxCell id="ke4ovrecutf4wJZY0rZ7-127" value="🧑‍🔬Gnr" style="swimlane;fontStyle=1;align=center;verticalAlign=middle;childLayout=stackLayout;horizontal=1;startSize=15;horizontalStack=0;resizeParent=1;resizeParentMax=0;resizeLast=0;collapsible=0;marginBottom=0;strokeColor=default;labelBackgroundColor=none;fillColor=none;fontFamily=Noto Emoji;" parent="1" vertex="1">
          <mxGeometry x="693" y="230.12" width="106" height="37" as="geometry" />
        </mxCell>
        <mxCell id="ke4ovrecutf4wJZY0rZ7-128" value="" style="line;strokeWidth=1;fillColor=none;align=left;verticalAlign=middle;spacingTop=-1;spacingLeft=3;spacingRight=3;rotatable=0;labelPosition=right;points=[];portConstraint=eastwest;labelBackgroundColor=none;fontFamily=Times New Roman;" parent="ke4ovrecutf4wJZY0rZ7-127" vertex="1">
          <mxGeometry y="15" width="106" height="8" as="geometry" />
        </mxCell>
        <mxCell id="RekMIjmEzn26gBZNVYGz-144" value="" style="endArrow=none;html=1;rounded=0;labelBackgroundColor=default;strokeColor=default;fontFamily=Helvetica;fontSize=11;fontColor=default;shape=connector;entryX=0;entryY=0.035;entryDx=0;entryDy=0;entryPerimeter=0;" parent="ke4ovrecutf4wJZY0rZ7-127" edge="1">
          <mxGeometry width="50" height="50" relative="1" as="geometry">
            <mxPoint x="-4" y="21.879999999999995" as="sourcePoint" />
            <mxPoint y="22" as="targetPoint" />
          </mxGeometry>
        </mxCell>
        <mxCell id="ke4ovrecutf4wJZY0rZ7-129" value="GetGne(🗃️[]):🧬" style="text;strokeColor=none;fillColor=none;align=left;verticalAlign=top;spacingLeft=0;spacingRight=0;overflow=hidden;rotatable=0;points=[[0,0.5],[1,0.5]];portConstraint=eastwest;labelBackgroundColor=none;spacingTop=-9;fontFamily=Noto Emoji;" parent="ke4ovrecutf4wJZY0rZ7-127" vertex="1">
          <mxGeometry y="23" width="106" height="14" as="geometry" />
        </mxCell>
        <mxCell id="RekMIjmEzn26gBZNVYGz-36" style="edgeStyle=orthogonalEdgeStyle;shape=connector;rounded=0;orthogonalLoop=1;jettySize=auto;html=1;exitX=0.75;exitY=0;exitDx=0;exitDy=0;entryX=0.25;entryY=0;entryDx=0;entryDy=0;labelBackgroundColor=default;strokeColor=default;fontFamily=Helvetica;fontSize=11;fontColor=default;startArrow=diamond;startFill=1;endArrow=none;endFill=0;" parent="1" source="ke4ovrecutf4wJZY0rZ7-133" target="ke4ovrecutf4wJZY0rZ7-9" edge="1">
          <mxGeometry relative="1" as="geometry">
            <Array as="points">
              <mxPoint x="246" y="43.620000000000005" />
              <mxPoint x="275" y="43.620000000000005" />
              <mxPoint x="275" y="48.620000000000005" />
            </Array>
          </mxGeometry>
        </mxCell>
        <mxCell id="RekMIjmEzn26gBZNVYGz-180" style="edgeStyle=orthogonalEdgeStyle;shape=connector;rounded=0;orthogonalLoop=1;jettySize=auto;html=1;exitX=0.5;exitY=0;exitDx=0;exitDy=0;labelBackgroundColor=default;strokeColor=default;fontFamily=Helvetica;fontSize=11;fontColor=default;startArrow=none;startFill=0;endArrow=none;endFill=0;" parent="1" source="ke4ovrecutf4wJZY0rZ7-133" edge="1">
          <mxGeometry relative="1" as="geometry">
            <mxPoint x="231.0625" y="40" as="targetPoint" />
          </mxGeometry>
        </mxCell>
        <mxCell id="ke4ovrecutf4wJZY0rZ7-133" value="🪢Knt" style="swimlane;fontStyle=1;childLayout=stackLayout;horizontal=1;startSize=15;fillColor=none;horizontalStack=0;resizeParent=1;resizeParentMax=0;resizeLast=0;collapsible=0;marginBottom=0;spacingLeft=0;labelBackgroundColor=none;fontFamily=Noto Emoji;spacingTop=0;spacingBottom=2;spacing=1;align=left;arcSize=15;" parent="1" vertex="1">
          <mxGeometry x="200.91000000000003" y="48.110000000000014" width="60.09" height="59" as="geometry" />
        </mxCell>
        <mxCell id="ke4ovrecutf4wJZY0rZ7-134" value="id:🆔&#xa;atn_spcs_ids:🆔[]&#xa;atd_spcs_ids:🆔[]" style="text;strokeColor=none;fillColor=none;align=left;verticalAlign=top;spacingLeft=0;spacingRight=0;overflow=hidden;rotatable=0;points=[[0,0.5],[1,0.5]];portConstraint=eastwest;spacingTop=-6;labelBackgroundColor=none;fontFamily=Noto Emoji;" parent="ke4ovrecutf4wJZY0rZ7-133" vertex="1">
          <mxGeometry y="15" width="60.09" height="44" as="geometry" />
        </mxCell>
        <mxCell id="RekMIjmEzn26gBZNVYGz-23" style="edgeStyle=orthogonalEdgeStyle;shape=connector;rounded=0;orthogonalLoop=1;jettySize=auto;html=1;exitX=0.75;exitY=0;exitDx=0;exitDy=0;labelBackgroundColor=default;strokeColor=default;fontFamily=Helvetica;fontSize=11;fontColor=default;startArrow=diamond;startFill=1;endArrow=none;endFill=0;" parent="1" source="ke4ovrecutf4wJZY0rZ7-135" edge="1">
          <mxGeometry relative="1" as="geometry">
            <mxPoint x="214" y="38" as="targetPoint" />
            <Array as="points">
              <mxPoint x="178" y="38" />
              <mxPoint x="214" y="38" />
            </Array>
          </mxGeometry>
        </mxCell>
        <mxCell id="RekMIjmEzn26gBZNVYGz-178" style="edgeStyle=orthogonalEdgeStyle;shape=connector;rounded=0;orthogonalLoop=1;jettySize=auto;html=1;exitX=0.5;exitY=0;exitDx=0;exitDy=0;labelBackgroundColor=default;strokeColor=default;fontFamily=Helvetica;fontSize=11;fontColor=default;startArrow=none;startFill=0;endArrow=none;endFill=0;" parent="1" source="ke4ovrecutf4wJZY0rZ7-135" edge="1">
          <mxGeometry relative="1" as="geometry">
            <mxPoint x="158" y="38" as="targetPoint" />
          </mxGeometry>
        </mxCell>
        <mxCell id="ke4ovrecutf4wJZY0rZ7-135" value="☐Prt" style="swimlane;fontStyle=1;childLayout=stackLayout;horizontal=1;startSize=12;fillColor=none;horizontalStack=0;resizeParent=1;resizeParentMax=0;resizeLast=0;collapsible=0;marginBottom=0;spacingLeft=0;labelBackgroundColor=none;fontFamily=Times New Roman;spacingTop=0;spacingBottom=1;spacing=2;" parent="1" vertex="1">
          <mxGeometry x="117" y="48.110000000000014" width="82" height="86" as="geometry" />
        </mxCell>
        <mxCell id="ke4ovrecutf4wJZY0rZ7-136" value="id:🆔&#xa;def_spcs_ids:🆔[]&#xa;mods_spcs_ids:&#xa; Map&lt;🆔,🆔[]&gt;&#xa;mods_plas:🛠️[]" style="text;strokeColor=none;fillColor=none;align=left;verticalAlign=top;spacingLeft=0;spacingRight=1;overflow=hidden;rotatable=0;points=[[0,0.5],[1,0.5]];portConstraint=eastwest;spacingTop=-4;labelBackgroundColor=none;fontFamily=Noto Emoji;" parent="ke4ovrecutf4wJZY0rZ7-135" vertex="1">
          <mxGeometry y="12" width="82" height="74" as="geometry" />
        </mxCell>
        <mxCell id="RekMIjmEzn26gBZNVYGz-42" style="edgeStyle=orthogonalEdgeStyle;shape=connector;rounded=0;orthogonalLoop=1;jettySize=auto;html=1;exitX=0.238;exitY=1.001;exitDx=0;exitDy=0;entryX=0.887;entryY=0.004;entryDx=0;entryDy=0;entryPerimeter=0;labelBackgroundColor=default;strokeColor=default;fontFamily=Helvetica;fontSize=11;fontColor=default;startArrow=diamond;startFill=1;endArrow=none;endFill=0;exitPerimeter=0;" parent="1" source="ke4ovrecutf4wJZY0rZ7-142" target="ke4ovrecutf4wJZY0rZ7-22" edge="1">
          <mxGeometry relative="1" as="geometry">
            <Array as="points">
              <mxPoint x="383" y="151" />
              <mxPoint x="367" y="151" />
            </Array>
          </mxGeometry>
        </mxCell>
        <mxCell id="ke4ovrecutf4wJZY0rZ7-141" value="🧬Gne" style="swimlane;fontStyle=1;childLayout=stackLayout;horizontal=1;startSize=15;fillColor=none;horizontalStack=0;resizeParent=1;resizeParentMax=0;resizeLast=0;collapsible=0;marginBottom=0;spacingLeft=0;labelBackgroundColor=none;fontFamily=Noto Emoji;spacingTop=0;spacingBottom=2;spacing=1;align=center;" parent="1" vertex="1">
          <mxGeometry x="370" y="95.62" width="52.88" height="45" as="geometry" />
        </mxCell>
        <mxCell id="ke4ovrecutf4wJZY0rZ7-142" value="id:🆔&#xa;prms:🗃️[]" style="text;strokeColor=none;fillColor=none;align=left;verticalAlign=top;spacingLeft=0;spacingRight=0;overflow=hidden;rotatable=0;points=[[0,0.5],[1,0.5]];portConstraint=eastwest;spacingTop=-6;labelBackgroundColor=none;fontFamily=Noto Emoji;" parent="ke4ovrecutf4wJZY0rZ7-141" vertex="1">
          <mxGeometry y="15" width="52.88" height="30" as="geometry" />
        </mxCell>
        <mxCell id="RekMIjmEzn26gBZNVYGz-109" style="edgeStyle=orthogonalEdgeStyle;shape=connector;rounded=0;orthogonalLoop=1;jettySize=auto;html=1;exitX=0;exitY=0.5;exitDx=0;exitDy=0;labelBackgroundColor=default;strokeColor=default;fontFamily=Helvetica;fontSize=11;fontColor=default;startArrow=diamond;startFill=1;endArrow=none;endFill=0;" parent="1" source="ke4ovrecutf4wJZY0rZ7-145" edge="1">
          <mxGeometry relative="1" as="geometry">
            <mxPoint x="132" y="31" as="targetPoint" />
            <Array as="points">
              <mxPoint x="106" y="238" />
              <mxPoint x="106" y="31" />
            </Array>
          </mxGeometry>
        </mxCell>
        <mxCell id="RekMIjmEzn26gBZNVYGz-111" style="edgeStyle=orthogonalEdgeStyle;shape=connector;rounded=0;orthogonalLoop=1;jettySize=auto;html=1;exitX=0;exitY=0.5;exitDx=0;exitDy=0;labelBackgroundColor=default;strokeColor=default;fontFamily=Helvetica;fontSize=11;fontColor=default;startArrow=diamond;startFill=1;endArrow=none;endFill=0;" parent="1" source="ke4ovrecutf4wJZY0rZ7-145" edge="1">
          <mxGeometry relative="1" as="geometry">
            <mxPoint x="134" y="31" as="targetPoint" />
            <Array as="points">
              <mxPoint x="106" y="238" />
              <mxPoint x="106" y="31" />
            </Array>
          </mxGeometry>
        </mxCell>
        <mxCell id="RekMIjmEzn26gBZNVYGz-112" style="edgeStyle=orthogonalEdgeStyle;shape=connector;rounded=0;orthogonalLoop=1;jettySize=auto;html=1;exitX=1;exitY=0.25;exitDx=0;exitDy=0;entryX=0.814;entryY=1.009;entryDx=0;entryDy=0;entryPerimeter=0;labelBackgroundColor=default;strokeColor=default;fontFamily=Helvetica;fontSize=11;fontColor=default;startArrow=diamond;startFill=1;endArrow=none;endFill=0;" parent="1" target="ke4ovrecutf4wJZY0rZ7-6" edge="1">
          <mxGeometry relative="1" as="geometry">
            <mxPoint x="174" y="234.745" as="sourcePoint" />
            <mxPoint x="188.98399999999998" y="225.62000000000006" as="targetPoint" />
          </mxGeometry>
        </mxCell>
        <mxCell id="RekMIjmEzn26gBZNVYGz-113" style="edgeStyle=orthogonalEdgeStyle;shape=connector;rounded=0;orthogonalLoop=1;jettySize=auto;html=1;exitX=1;exitY=0.25;exitDx=0;exitDy=0;entryX=0.515;entryY=1.031;entryDx=0;entryDy=0;entryPerimeter=0;labelBackgroundColor=default;strokeColor=default;fontFamily=Helvetica;fontSize=11;fontColor=default;startArrow=diamond;startFill=1;endArrow=none;endFill=0;" parent="1" target="RekMIjmEzn26gBZNVYGz-2" edge="1">
          <mxGeometry relative="1" as="geometry">
            <mxPoint x="174" y="234.745" as="sourcePoint" />
            <mxPoint x="231.81599999999997" y="226.88099999999997" as="targetPoint" />
            <Array as="points">
              <mxPoint x="175" y="235" />
              <mxPoint x="195" y="235" />
              <mxPoint x="232" y="235" />
            </Array>
          </mxGeometry>
        </mxCell>
        <mxCell id="RekMIjmEzn26gBZNVYGz-114" style="edgeStyle=orthogonalEdgeStyle;shape=connector;rounded=0;orthogonalLoop=1;jettySize=auto;html=1;exitX=1;exitY=0.25;exitDx=0;exitDy=0;entryX=0.481;entryY=1.005;entryDx=0;entryDy=0;entryPerimeter=0;labelBackgroundColor=default;strokeColor=default;fontFamily=Helvetica;fontSize=11;fontColor=default;startArrow=diamond;startFill=1;endArrow=none;endFill=0;" parent="1" target="RekMIjmEzn26gBZNVYGz-72" edge="1">
          <mxGeometry relative="1" as="geometry">
            <Array as="points">
              <mxPoint x="221" y="235" />
              <mxPoint x="292" y="235" />
            </Array>
            <mxPoint x="174" y="234.745" as="sourcePoint" />
            <mxPoint x="292.02000000000004" y="229.14999999999998" as="targetPoint" />
          </mxGeometry>
        </mxCell>
        <mxCell id="RekMIjmEzn26gBZNVYGz-115" style="edgeStyle=orthogonalEdgeStyle;shape=connector;rounded=0;orthogonalLoop=1;jettySize=auto;html=1;exitX=1;exitY=0.25;exitDx=0;exitDy=0;entryX=0.549;entryY=1.008;entryDx=0;entryDy=0;entryPerimeter=0;labelBackgroundColor=default;strokeColor=default;fontFamily=Helvetica;fontSize=11;fontColor=default;startArrow=diamond;startFill=1;endArrow=none;endFill=0;" parent="1" target="_75S0M02VXW5GKMzSnu0-5" edge="1">
          <mxGeometry relative="1" as="geometry">
            <mxPoint x="174" y="234.74500000000006" as="sourcePoint" />
            <mxPoint x="323.427" y="157.368" as="targetPoint" />
            <Array as="points">
              <mxPoint x="175" y="235" />
              <mxPoint x="323" y="235" />
            </Array>
          </mxGeometry>
        </mxCell>
        <mxCell id="RekMIjmEzn26gBZNVYGz-116" style="edgeStyle=orthogonalEdgeStyle;shape=connector;rounded=0;orthogonalLoop=1;jettySize=auto;html=1;exitX=1;exitY=0.25;exitDx=0;exitDy=0;labelBackgroundColor=default;strokeColor=default;fontFamily=Helvetica;fontSize=11;fontColor=default;startArrow=diamond;startFill=1;endArrow=none;endFill=0;entryX=0.812;entryY=1.002;entryDx=0;entryDy=0;entryPerimeter=0;" parent="1" target="ke4ovrecutf4wJZY0rZ7-12" edge="1">
          <mxGeometry relative="1" as="geometry">
            <mxPoint x="265" y="183" as="targetPoint" />
            <Array as="points">
              <mxPoint x="265" y="235" />
            </Array>
            <mxPoint x="174" y="234.745" as="sourcePoint" />
          </mxGeometry>
        </mxCell>
        <mxCell id="RekMIjmEzn26gBZNVYGz-117" style="edgeStyle=orthogonalEdgeStyle;shape=connector;rounded=0;orthogonalLoop=1;jettySize=auto;html=1;exitX=1;exitY=0.25;exitDx=0;exitDy=0;entryX=0.488;entryY=0.995;entryDx=0;entryDy=0;entryPerimeter=0;labelBackgroundColor=default;strokeColor=default;fontFamily=Helvetica;fontSize=11;fontColor=default;startArrow=diamond;startFill=1;endArrow=none;endFill=0;" parent="1" target="ke4ovrecutf4wJZY0rZ7-23" edge="1">
          <mxGeometry relative="1" as="geometry">
            <Array as="points">
              <mxPoint x="349" y="235" />
            </Array>
            <mxPoint x="174" y="234.745" as="sourcePoint" />
            <mxPoint x="349.29999999999995" y="223.18399999999997" as="targetPoint" />
          </mxGeometry>
        </mxCell>
        <mxCell id="RekMIjmEzn26gBZNVYGz-149" style="edgeStyle=orthogonalEdgeStyle;shape=connector;rounded=0;orthogonalLoop=1;jettySize=auto;html=1;exitX=1;exitY=0.25;exitDx=0;exitDy=0;labelBackgroundColor=default;strokeColor=default;fontFamily=Helvetica;fontSize=11;fontColor=default;startArrow=diamond;startFill=1;endArrow=none;endFill=0;" parent="1" edge="1">
          <mxGeometry relative="1" as="geometry">
            <mxPoint x="388" y="235" as="targetPoint" />
            <Array as="points">
              <mxPoint x="385" y="235" />
            </Array>
            <mxPoint x="174" y="234.745" as="sourcePoint" />
          </mxGeometry>
        </mxCell>
        <mxCell id="RekMIjmEzn26gBZNVYGz-150" style="edgeStyle=orthogonalEdgeStyle;shape=connector;rounded=0;orthogonalLoop=1;jettySize=auto;html=1;exitX=0;exitY=0.5;exitDx=0;exitDy=0;entryX=0.5;entryY=1;entryDx=0;entryDy=0;labelBackgroundColor=default;strokeColor=default;fontFamily=Helvetica;fontSize=11;fontColor=default;startArrow=diamond;startFill=1;endArrow=none;endFill=0;" parent="1" source="ke4ovrecutf4wJZY0rZ7-145" target="ke4ovrecutf4wJZY0rZ7-34" edge="1">
          <mxGeometry relative="1" as="geometry">
            <Array as="points">
              <mxPoint x="106" y="238" />
              <mxPoint x="106" y="312" />
              <mxPoint x="324" y="312" />
            </Array>
          </mxGeometry>
        </mxCell>
        <mxCell id="ke4ovrecutf4wJZY0rZ7-145" value="&amp;lt;&amp;lt;oneof&amp;gt;&amp;gt;&lt;b&gt;&lt;font face=&quot;Noto Emoji&quot;&gt;&lt;br&gt;⭕&lt;/font&gt;Mdl&lt;/b&gt;" style="html=1;labelBackgroundColor=none;fillColor=none;fontFamily=Times New Roman;spacingBottom=0;spacingLeft=-1;spacingTop=-2;" parent="1" vertex="1">
          <mxGeometry x="117" y="223.61999999999998" width="57" height="28.5" as="geometry" />
        </mxCell>
        <mxCell id="RekMIjmEzn26gBZNVYGz-63" style="edgeStyle=orthogonalEdgeStyle;shape=connector;rounded=0;orthogonalLoop=1;jettySize=auto;html=1;exitX=1.001;exitY=0.24;exitDx=0;exitDy=0;labelBackgroundColor=default;strokeColor=default;fontFamily=Helvetica;fontSize=11;fontColor=default;startArrow=diamond;startFill=1;endArrow=none;endFill=0;exitPerimeter=0;" parent="1" source="_75S0M02VXW5GKMzSnu0-4" edge="1">
          <mxGeometry relative="1" as="geometry">
            <mxPoint x="364" y="92.62" as="targetPoint" />
            <Array as="points">
              <mxPoint x="364" y="113" />
            </Array>
          </mxGeometry>
        </mxCell>
        <mxCell id="_75S0M02VXW5GKMzSnu0-4" value="📄Spc" style="swimlane;fontStyle=1;childLayout=stackLayout;horizontal=1;startSize=16;fillColor=none;horizontalStack=0;resizeParent=1;resizeParentMax=0;resizeLast=0;collapsible=0;marginBottom=0;labelBackgroundColor=none;fontFamily=Noto Emoji;spacing=2;spacingLeft=0;spacingTop=0;spacingBottom=2;" parent="1" vertex="1">
          <mxGeometry x="281" y="95.62" width="77" height="73" as="geometry" />
        </mxCell>
        <mxCell id="_75S0M02VXW5GKMzSnu0-5" value="id:🆔&#xa;gens_plas:🛠️[]&#xa;gnes_ids:🧬[]&#xa;prms:🗃️[]" style="text;strokeColor=none;fillColor=none;align=left;verticalAlign=top;spacingLeft=0;spacingRight=0;overflow=hidden;rotatable=0;points=[[0,0.5],[1,0.5]];portConstraint=eastwest;spacingTop=-7;labelBackgroundColor=none;fontFamily=Noto Emoji;" parent="_75S0M02VXW5GKMzSnu0-4" vertex="1">
          <mxGeometry y="16" width="77" height="57" as="geometry" />
        </mxCell>
        <mxCell id="RekMIjmEzn26gBZNVYGz-38" style="edgeStyle=orthogonalEdgeStyle;shape=connector;rounded=0;orthogonalLoop=1;jettySize=auto;html=1;labelBackgroundColor=default;strokeColor=default;fontFamily=Helvetica;fontSize=11;fontColor=default;startArrow=diamond;startFill=1;endArrow=none;endFill=0;" parent="1" edge="1">
          <mxGeometry relative="1" as="geometry">
            <mxPoint x="261" y="100" as="sourcePoint" />
            <mxPoint x="270" y="100" as="targetPoint" />
            <Array as="points">
              <mxPoint x="265" y="100" />
            </Array>
          </mxGeometry>
        </mxCell>
        <mxCell id="RekMIjmEzn26gBZNVYGz-106" style="edgeStyle=orthogonalEdgeStyle;shape=connector;rounded=0;orthogonalLoop=1;jettySize=auto;html=1;exitX=0.25;exitY=1;exitDx=0;exitDy=0;labelBackgroundColor=default;strokeColor=default;fontFamily=Helvetica;fontSize=11;fontColor=default;startArrow=diamond;startFill=1;endArrow=none;endFill=0;" parent="1" source="RekMIjmEzn26gBZNVYGz-1" edge="1">
          <mxGeometry relative="1" as="geometry">
            <Array as="points">
              <mxPoint x="219" y="227" />
              <mxPoint x="201" y="227" />
            </Array>
            <mxPoint x="201" y="222" as="targetPoint" />
          </mxGeometry>
        </mxCell>
        <mxCell id="RekMIjmEzn26gBZNVYGz-107" style="edgeStyle=orthogonalEdgeStyle;shape=connector;rounded=0;orthogonalLoop=1;jettySize=auto;html=1;exitX=1;exitY=0.25;exitDx=0;exitDy=0;entryX=0.731;entryY=0.999;entryDx=0;entryDy=0;entryPerimeter=0;labelBackgroundColor=default;strokeColor=default;fontFamily=Helvetica;fontSize=11;fontColor=default;startArrow=diamond;startFill=1;endArrow=none;endFill=0;" parent="1" source="RekMIjmEzn26gBZNVYGz-1" target="ke4ovrecutf4wJZY0rZ7-12" edge="1">
          <mxGeometry relative="1" as="geometry" />
        </mxCell>
        <mxCell id="RekMIjmEzn26gBZNVYGz-1" value="🖧Lyt" style="swimlane;fontStyle=1;childLayout=stackLayout;horizontal=1;startSize=13;fillColor=none;horizontalStack=0;resizeParent=1;resizeParentMax=0;resizeLast=0;collapsible=0;marginBottom=0;spacingLeft=0;labelBackgroundColor=none;fontFamily=Times New Roman;spacingTop=0;spacingBottom=4;spacing=2;" parent="1" vertex="1">
          <mxGeometry x="207" y="180.62" width="48" height="42" as="geometry" />
        </mxCell>
        <mxCell id="RekMIjmEzn26gBZNVYGz-2" value="sbjs:🛈[]&#xa;atrs:🧑‍🤝‍🧑[]" style="text;strokeColor=none;fillColor=none;align=left;verticalAlign=top;spacingLeft=0;spacingRight=0;overflow=hidden;rotatable=0;points=[[0,0.5],[1,0.5]];portConstraint=eastwest;spacingTop=-6;labelBackgroundColor=none;fontFamily=Noto Emoji;" parent="RekMIjmEzn26gBZNVYGz-1" vertex="1">
          <mxGeometry y="13" width="48" height="29" as="geometry" />
        </mxCell>
        <mxCell id="RekMIjmEzn26gBZNVYGz-123" style="edgeStyle=orthogonalEdgeStyle;shape=connector;rounded=0;orthogonalLoop=1;jettySize=auto;html=1;exitX=1.001;exitY=0.263;exitDx=0;exitDy=0;entryX=1;entryY=0.509;entryDx=0;entryDy=0;labelBackgroundColor=default;strokeColor=default;fontFamily=Helvetica;fontSize=11;fontColor=default;startArrow=diamond;startFill=1;endArrow=none;endFill=0;entryPerimeter=0;exitPerimeter=0;" parent="1" source="RekMIjmEzn26gBZNVYGz-4" target="ke4ovrecutf4wJZY0rZ7-49" edge="1">
          <mxGeometry relative="1" as="geometry">
            <Array as="points">
              <mxPoint x="524" y="70.62" />
              <mxPoint x="524" y="139.62" />
              <mxPoint x="520" y="139.62" />
            </Array>
          </mxGeometry>
        </mxCell>
        <mxCell id="RekMIjmEzn26gBZNVYGz-124" style="edgeStyle=orthogonalEdgeStyle;shape=connector;rounded=0;orthogonalLoop=1;jettySize=auto;html=1;entryX=1;entryY=0.5;entryDx=0;entryDy=0;labelBackgroundColor=default;strokeColor=default;fontFamily=Helvetica;fontSize=11;fontColor=default;startArrow=diamond;startFill=1;endArrow=none;endFill=0;exitX=1.007;exitY=0.258;exitDx=0;exitDy=0;exitPerimeter=0;" parent="1" source="RekMIjmEzn26gBZNVYGz-4" target="ke4ovrecutf4wJZY0rZ7-52" edge="1">
          <mxGeometry relative="1" as="geometry">
            <mxPoint x="518" y="93.62" as="sourcePoint" />
            <Array as="points">
              <mxPoint x="524" y="70.62" />
              <mxPoint x="524" y="204.62" />
              <mxPoint x="509" y="204.62" />
            </Array>
          </mxGeometry>
        </mxCell>
        <mxCell id="RekMIjmEzn26gBZNVYGz-3" value="🏙️Dsn" style="swimlane;fontStyle=1;childLayout=stackLayout;horizontal=1;startSize=15;fillColor=none;horizontalStack=0;resizeParent=1;resizeParentMax=0;resizeLast=0;collapsible=0;marginBottom=0;spacingLeft=0;labelBackgroundColor=none;fontFamily=Noto Emoji;spacing=2;spacingTop=0;spacingBottom=2;" parent="1" vertex="1">
          <mxGeometry x="469" y="48.120000000000005" width="50" height="45" as="geometry" />
        </mxCell>
        <mxCell id="RekMIjmEzn26gBZNVYGz-4" value="typs:🏘️[]&#xa;objs:⌂[]" style="text;strokeColor=none;fillColor=none;align=left;verticalAlign=top;spacingLeft=0;spacingRight=0;overflow=hidden;rotatable=0;points=[[0,0.5],[1,0.5]];portConstraint=eastwest;spacingTop=-6;labelBackgroundColor=none;fontFamily=Noto Emoji;" parent="RekMIjmEzn26gBZNVYGz-3" vertex="1">
          <mxGeometry y="15" width="50" height="30" as="geometry" />
        </mxCell>
        <mxCell id="RekMIjmEzn26gBZNVYGz-5" value="&lt;&lt;enum&gt;&gt;&#xa;🗣️Lng" style="swimlane;fontStyle=1;childLayout=stackLayout;horizontal=1;startSize=27;fillColor=none;horizontalStack=0;resizeParent=1;resizeParentMax=0;resizeLast=0;collapsible=0;marginBottom=0;swimlaneLine=1;labelBackgroundColor=none;fontFamily=Noto Emoji;spacing=2;spacingLeft=0;spacingTop=0;spacingBottom=4;" parent="1" vertex="1">
          <mxGeometry x="530" y="247.12" width="59" height="97" as="geometry" />
        </mxCell>
        <mxCell id="RekMIjmEzn26gBZNVYGz-6" value="NONE&#xa;GLTF&#xa;IFC&#xa;SPECKLE&#xa;..." style="text;strokeColor=none;fillColor=none;align=left;verticalAlign=top;spacingLeft=1;spacingRight=1;overflow=hidden;rotatable=0;points=[[0,0.5],[1,0.5]];portConstraint=eastwest;spacingTop=-8;labelBackgroundColor=none;fontFamily=Times New Roman;" parent="RekMIjmEzn26gBZNVYGz-5" vertex="1">
          <mxGeometry y="27" width="59" height="70" as="geometry" />
        </mxCell>
        <mxCell id="RekMIjmEzn26gBZNVYGz-7" value="&lt;&lt;enum&gt;&gt;&#xa;⚞Slz" style="swimlane;fontStyle=1;childLayout=stackLayout;horizontal=1;startSize=27;fillColor=none;horizontalStack=0;resizeParent=1;resizeParentMax=0;resizeLast=0;collapsible=0;marginBottom=0;swimlaneLine=1;labelBackgroundColor=none;fontFamily=Noto Emoji;spacing=2;spacingLeft=0;spacingTop=0;spacingBottom=4;" parent="1" vertex="1">
          <mxGeometry x="530" y="147.75" width="59" height="97" as="geometry" />
        </mxCell>
        <mxCell id="RekMIjmEzn26gBZNVYGz-8" value="NONE&#xa;JSON&#xa;XML&#xa;YAML&#xa;..." style="text;strokeColor=none;fillColor=none;align=left;verticalAlign=top;spacingLeft=1;spacingRight=1;overflow=hidden;rotatable=0;points=[[0,0.5],[1,0.5]];portConstraint=eastwest;spacingTop=-8;labelBackgroundColor=none;fontFamily=Times New Roman;" parent="RekMIjmEzn26gBZNVYGz-7" vertex="1">
          <mxGeometry y="27" width="59" height="70" as="geometry" />
        </mxCell>
        <mxCell id="RekMIjmEzn26gBZNVYGz-9" value="&lt;&lt;enum&gt;&gt;&#xa;🔑Enc" style="swimlane;fontStyle=1;childLayout=stackLayout;horizontal=1;startSize=27;fillColor=none;horizontalStack=0;resizeParent=1;resizeParentMax=0;resizeLast=0;collapsible=0;marginBottom=0;swimlaneLine=1;labelBackgroundColor=none;fontFamily=Noto Emoji;spacing=2;spacingLeft=0;spacingTop=0;spacingBottom=4;" parent="1" vertex="1">
          <mxGeometry x="530" y="48.120000000000005" width="59" height="97" as="geometry" />
        </mxCell>
        <mxCell id="RekMIjmEzn26gBZNVYGz-10" value="NONE&#xa;UTF8&#xa;ASCII&#xa;BASE64&#xa;..." style="text;strokeColor=none;fillColor=none;align=left;verticalAlign=top;spacingLeft=1;spacingRight=1;overflow=hidden;rotatable=0;points=[[0,0.5],[1,0.5]];portConstraint=eastwest;spacingTop=-8;labelBackgroundColor=none;fontFamily=Times New Roman;" parent="RekMIjmEzn26gBZNVYGz-9" vertex="1">
          <mxGeometry y="27" width="59" height="70" as="geometry" />
        </mxCell>
        <mxCell id="RekMIjmEzn26gBZNVYGz-99" style="edgeStyle=orthogonalEdgeStyle;shape=connector;rounded=0;orthogonalLoop=1;jettySize=auto;html=1;exitX=0.75;exitY=1;exitDx=0;exitDy=0;labelBackgroundColor=default;strokeColor=default;fontFamily=Helvetica;fontSize=11;fontColor=default;startArrow=diamond;startFill=1;endArrow=none;endFill=0;" parent="1" source="RekMIjmEzn26gBZNVYGz-11" edge="1">
          <mxGeometry relative="1" as="geometry">
            <Array as="points">
              <mxPoint x="659" y="192" />
            </Array>
            <mxPoint x="651" y="192" as="targetPoint" />
          </mxGeometry>
        </mxCell>
        <mxCell id="RekMIjmEzn26gBZNVYGz-100" style="edgeStyle=orthogonalEdgeStyle;shape=connector;rounded=0;orthogonalLoop=1;jettySize=auto;html=1;exitX=0.75;exitY=1;exitDx=0;exitDy=0;entryX=0.874;entryY=-0.001;entryDx=0;entryDy=0;entryPerimeter=0;labelBackgroundColor=default;strokeColor=default;fontFamily=Helvetica;fontSize=11;fontColor=default;startArrow=diamond;startFill=1;endArrow=none;endFill=0;" parent="1" source="RekMIjmEzn26gBZNVYGz-11" target="RekMIjmEzn26gBZNVYGz-95" edge="1">
          <mxGeometry relative="1" as="geometry">
            <Array as="points">
              <mxPoint x="658" y="242" />
            </Array>
          </mxGeometry>
        </mxCell>
        <mxCell id="RekMIjmEzn26gBZNVYGz-11" value="📜Scr" style="swimlane;fontStyle=1;align=center;verticalAlign=middle;childLayout=stackLayout;horizontal=1;startSize=16;horizontalStack=0;resizeParent=1;resizeParentMax=0;resizeLast=0;collapsible=0;marginBottom=0;strokeColor=default;labelBackgroundColor=none;fillColor=none;fontFamily=Noto Emoji;spacingLeft=0;spacingTop=0;spacingBottom=2;spacing=2;" parent="1" vertex="1">
          <mxGeometry x="591" y="47.620000000000005" width="90" height="93" as="geometry" />
        </mxCell>
        <mxCell id="RekMIjmEzn26gBZNVYGz-78" value="uri:🔗&#xa;scr_deps:🔗[]&#xa;smas:🛂[]&#xa;ptf:🚉" style="text;strokeColor=none;fillColor=none;align=left;verticalAlign=top;spacingLeft=0;spacingRight=0;overflow=hidden;rotatable=0;points=[[0,0.5],[1,0.5]];portConstraint=eastwest;labelBackgroundColor=none;spacingTop=-6;fontFamily=Noto Emoji;" parent="RekMIjmEzn26gBZNVYGz-11" vertex="1">
          <mxGeometry y="16" width="90" height="56" as="geometry" />
        </mxCell>
        <mxCell id="RekMIjmEzn26gBZNVYGz-12" value="" style="line;strokeWidth=1;fillColor=none;align=left;verticalAlign=middle;spacingTop=-1;spacingLeft=3;spacingRight=3;rotatable=0;labelPosition=right;points=[];portConstraint=eastwest;labelBackgroundColor=none;fontFamily=Times New Roman;" parent="RekMIjmEzn26gBZNVYGz-11" vertex="1">
          <mxGeometry y="72" width="90" height="8" as="geometry" />
        </mxCell>
        <mxCell id="RekMIjmEzn26gBZNVYGz-13" value="Solve(🗃️[]):🗃️[]" style="text;strokeColor=none;fillColor=none;align=left;verticalAlign=top;spacingLeft=0;spacingRight=0;overflow=hidden;rotatable=0;points=[[0,0.5],[1,0.5]];portConstraint=eastwest;labelBackgroundColor=none;spacingTop=-10;fontFamily=Noto Emoji;" parent="RekMIjmEzn26gBZNVYGz-11" vertex="1">
          <mxGeometry y="80" width="90" height="13" as="geometry" />
        </mxCell>
        <mxCell id="RekMIjmEzn26gBZNVYGz-14" value="🪡Stc" style="swimlane;fontStyle=1;align=center;verticalAlign=middle;childLayout=stackLayout;horizontal=1;startSize=15;horizontalStack=0;resizeParent=1;resizeParentMax=0;resizeLast=0;collapsible=0;marginBottom=0;strokeColor=default;labelBackgroundColor=none;fillColor=none;fontFamily=Noto Emoji;" parent="1" vertex="1">
          <mxGeometry x="693" y="269.64" width="104" height="37" as="geometry" />
        </mxCell>
        <mxCell id="RekMIjmEzn26gBZNVYGz-146" value="" style="endArrow=none;html=1;rounded=0;labelBackgroundColor=default;strokeColor=default;fontFamily=Helvetica;fontSize=11;fontColor=default;shape=connector;entryX=0;entryY=0.035;entryDx=0;entryDy=0;entryPerimeter=0;" parent="RekMIjmEzn26gBZNVYGz-14" edge="1">
          <mxGeometry width="50" height="50" relative="1" as="geometry">
            <mxPoint x="-4" y="18.439999999999998" as="sourcePoint" />
            <mxPoint y="18.560000000000002" as="targetPoint" />
          </mxGeometry>
        </mxCell>
        <mxCell id="RekMIjmEzn26gBZNVYGz-15" value="" style="line;strokeWidth=1;fillColor=none;align=left;verticalAlign=middle;spacingTop=-1;spacingLeft=3;spacingRight=3;rotatable=0;labelPosition=right;points=[];portConstraint=eastwest;labelBackgroundColor=none;fontFamily=Times New Roman;" parent="RekMIjmEzn26gBZNVYGz-14" vertex="1">
          <mxGeometry y="15" width="104" height="8" as="geometry" />
        </mxCell>
        <mxCell id="RekMIjmEzn26gBZNVYGz-16" value="GetKnt(🗃️[]):🪢" style="text;strokeColor=none;fillColor=none;align=left;verticalAlign=top;spacingLeft=0;spacingRight=0;overflow=hidden;rotatable=0;points=[[0,0.5],[1,0.5]];portConstraint=eastwest;labelBackgroundColor=none;spacingTop=-9;fontFamily=Noto Emoji;" parent="RekMIjmEzn26gBZNVYGz-14" vertex="1">
          <mxGeometry y="23" width="104" height="14" as="geometry" />
        </mxCell>
        <mxCell id="RekMIjmEzn26gBZNVYGz-17" value="&lt;font face=&quot;Noto Emoji&quot;&gt;🧮&lt;/font&gt;&lt;b&gt;Nnr&lt;/b&gt;" style="html=1;labelBackgroundColor=none;fillColor=none;fontFamily=Times New Roman;fontStyle=1;startSize=10;spacing=2;spacingLeft=-2;spacingTop=0;spacingBottom=2;" parent="1" vertex="1">
          <mxGeometry x="117" y="290.62" width="40" height="17" as="geometry" />
        </mxCell>
        <mxCell id="RekMIjmEzn26gBZNVYGz-18" value="&lt;b&gt;&lt;font face=&quot;Noto Emoji&quot;&gt;🔢&lt;/font&gt;Int&lt;/b&gt;" style="html=1;labelBackgroundColor=none;fillColor=none;fontFamily=Times New Roman;fontStyle=1;startSize=10;spacing=2;spacingLeft=-2;spacingTop=0;spacingBottom=2;" parent="1" vertex="1">
          <mxGeometry x="159" y="290.62" width="33" height="17" as="geometry" />
        </mxCell>
        <mxCell id="RekMIjmEzn26gBZNVYGz-19" value="☶&lt;b&gt;Chc&lt;/b&gt;" style="html=1;labelBackgroundColor=none;fillColor=none;fontFamily=Noto Emoji;fontStyle=1;startSize=10;spacing=2;spacingLeft=-2;spacingTop=0;spacingBottom=0;" parent="1" vertex="1">
          <mxGeometry x="255" y="242.36" width="36" height="14.26" as="geometry" />
        </mxCell>
        <mxCell id="RekMIjmEzn26gBZNVYGz-43" value="🧾Dec" style="html=1;labelBackgroundColor=none;fillColor=none;fontFamily=Noto Emoji;fontStyle=1;startSize=10;spacing=2;spacingLeft=-3;spacingTop=0;spacingBottom=2;" parent="1" vertex="1">
          <mxGeometry x="194.25" y="290.62" width="36.75" height="17" as="geometry" />
        </mxCell>
        <mxCell id="RekMIjmEzn26gBZNVYGz-48" value="📝Dcp" style="html=1;labelBackgroundColor=none;fillColor=none;fontFamily=Noto Emoji;fontStyle=1;startSize=10;spacing=2;spacingLeft=-2;spacingTop=0;spacingBottom=1;" parent="1" vertex="1">
          <mxGeometry x="255" y="258.62" width="38" height="17" as="geometry" />
        </mxCell>
        <mxCell id="RekMIjmEzn26gBZNVYGz-50" value="&lt;font face=&quot;Noto Emoji&quot;&gt;↩️&lt;/font&gt;Crv" style="html=1;labelBackgroundColor=none;fillColor=none;fontFamily=Times New Roman;fontStyle=1;startSize=13;spacing=2;spacingLeft=-2;spacingTop=0;spacingBottom=1;" parent="1" vertex="1">
          <mxGeometry x="233" y="290.62" width="37" height="17" as="geometry" />
        </mxCell>
        <mxCell id="RekMIjmEzn26gBZNVYGz-62" style="edgeStyle=orthogonalEdgeStyle;shape=connector;rounded=0;orthogonalLoop=1;jettySize=auto;html=1;exitX=0.25;exitY=0;exitDx=0;exitDy=0;entryX=0.75;entryY=0;entryDx=0;entryDy=0;labelBackgroundColor=default;strokeColor=default;fontFamily=Helvetica;fontSize=11;fontColor=default;startArrow=diamond;startFill=1;endArrow=none;endFill=0;" parent="1" source="RekMIjmEzn26gBZNVYGz-59" target="ke4ovrecutf4wJZY0rZ7-69" edge="1">
          <mxGeometry relative="1" as="geometry">
            <Array as="points">
              <mxPoint x="426" y="44" />
              <mxPoint x="401" y="44" />
            </Array>
          </mxGeometry>
        </mxCell>
        <mxCell id="RekMIjmEzn26gBZNVYGz-59" value="🎞️Arr" style="swimlane;fontStyle=1;childLayout=stackLayout;horizontal=1;startSize=12;fillColor=none;horizontalStack=0;resizeParent=1;resizeParentMax=0;resizeLast=0;collapsible=0;marginBottom=0;spacingLeft=0;labelBackgroundColor=none;fontFamily=Noto Emoji;spacing=2;spacingTop=0;spacingBottom=2;" parent="1" vertex="1">
          <mxGeometry x="413" y="48.11" width="52" height="28" as="geometry" />
        </mxCell>
        <mxCell id="RekMIjmEzn26gBZNVYGz-60" value="dcns:🤝[]" style="text;strokeColor=none;fillColor=none;align=left;verticalAlign=top;spacingLeft=0;spacingRight=0;overflow=hidden;rotatable=0;points=[[0,0.5],[1,0.5]];portConstraint=eastwest;spacingTop=-6;labelBackgroundColor=none;fontFamily=Noto Emoji;" parent="RekMIjmEzn26gBZNVYGz-59" vertex="1">
          <mxGeometry y="12" width="52" height="16" as="geometry" />
        </mxCell>
        <mxCell id="RekMIjmEzn26gBZNVYGz-67" value="✴️Pnt" style="swimlane;fontStyle=1;childLayout=stackLayout;horizontal=1;startSize=12;fillColor=none;horizontalStack=0;resizeParent=1;resizeParentMax=0;resizeLast=0;collapsible=0;marginBottom=0;spacingLeft=0;labelBackgroundColor=none;fontFamily=Noto Emoji;spacing=2;spacingTop=0;spacingBottom=2;" parent="1" vertex="1">
          <mxGeometry x="339" y="279.62" width="37" height="56" as="geometry" />
        </mxCell>
        <mxCell id="RekMIjmEzn26gBZNVYGz-68" value="x:🧾&#xa;y:🧾&#xa;z:🧾" style="text;strokeColor=none;fillColor=none;align=left;verticalAlign=top;spacingLeft=0;spacingRight=0;overflow=hidden;rotatable=0;points=[[0,0.5],[1,0.5]];portConstraint=eastwest;spacingTop=-6;labelBackgroundColor=none;fontFamily=Noto Emoji;spacing=2;" parent="RekMIjmEzn26gBZNVYGz-67" vertex="1">
          <mxGeometry y="12" width="37" height="44" as="geometry" />
        </mxCell>
        <mxCell id="RekMIjmEzn26gBZNVYGz-69" value="↗️Vec" style="swimlane;fontStyle=1;childLayout=stackLayout;horizontal=1;startSize=15;fillColor=none;horizontalStack=0;resizeParent=1;resizeParentMax=0;resizeLast=0;collapsible=0;marginBottom=0;spacingLeft=0;labelBackgroundColor=none;fontFamily=Noto Emoji;spacing=2;spacingTop=0;spacingBottom=2;" parent="1" vertex="1">
          <mxGeometry x="377.62" y="279.62" width="37" height="59" as="geometry" />
        </mxCell>
        <mxCell id="RekMIjmEzn26gBZNVYGz-70" value="x:🧾&#xa;y:🧾&#xa;z:🧾" style="text;strokeColor=none;fillColor=none;align=left;verticalAlign=top;spacingLeft=0;spacingRight=0;overflow=hidden;rotatable=0;points=[[0,0.5],[1,0.5]];portConstraint=eastwest;spacingTop=-6;labelBackgroundColor=none;fontFamily=Noto Emoji;spacing=2;" parent="RekMIjmEzn26gBZNVYGz-69" vertex="1">
          <mxGeometry y="15" width="37" height="44" as="geometry" />
        </mxCell>
        <mxCell id="RekMIjmEzn26gBZNVYGz-71" value="🧑‍🏭Asm" style="swimlane;fontStyle=1;childLayout=stackLayout;horizontal=1;startSize=15;fillColor=none;horizontalStack=0;resizeParent=1;resizeParentMax=0;resizeLast=0;collapsible=0;marginBottom=0;spacingLeft=0;labelBackgroundColor=none;fontFamily=Noto Emoji;spacing=2;spacingTop=0;spacingBottom=2;" parent="1" vertex="1">
          <mxGeometry x="267.62" y="180.12" width="50" height="45" as="geometry" />
        </mxCell>
        <mxCell id="RekMIjmEzn26gBZNVYGz-72" value="sbj_id:🆔&#xa;pars:🧑‍🏭[]" style="text;strokeColor=none;fillColor=none;align=left;verticalAlign=top;spacingLeft=0;spacingRight=0;overflow=hidden;rotatable=0;points=[[0,0.5],[1,0.5]];portConstraint=eastwest;spacingTop=-6;labelBackgroundColor=none;fontFamily=Noto Emoji;" parent="RekMIjmEzn26gBZNVYGz-71" vertex="1">
          <mxGeometry y="15" width="50" height="30" as="geometry" />
        </mxCell>
        <mxCell id="RekMIjmEzn26gBZNVYGz-79" value="&lt;&lt;enum&gt;&gt;&#xa;🚉Ptf" style="swimlane;fontStyle=1;childLayout=stackLayout;horizontal=1;startSize=27;fillColor=none;horizontalStack=0;resizeParent=1;resizeParentMax=0;resizeLast=0;collapsible=0;marginBottom=0;swimlaneLine=1;labelBackgroundColor=none;fontFamily=Noto Emoji;spacing=2;spacingLeft=0;spacingTop=0;spacingBottom=4;" parent="1" vertex="1">
          <mxGeometry x="591.5" y="142.62" width="59" height="97" as="geometry" />
        </mxCell>
        <mxCell id="RekMIjmEzn26gBZNVYGz-80" value="SEMIO&#xa;GRASS-&#xa;HOPPER&#xa;PYTHON&#xa;..." style="text;strokeColor=none;fillColor=none;align=left;verticalAlign=top;spacingLeft=0;spacingRight=0;overflow=hidden;rotatable=0;points=[[0,0.5],[1,0.5]];portConstraint=eastwest;spacingTop=-8;labelBackgroundColor=none;fontFamily=Times New Roman;" parent="RekMIjmEzn26gBZNVYGz-79" vertex="1">
          <mxGeometry y="27" width="59" height="70" as="geometry" />
        </mxCell>
        <mxCell id="RekMIjmEzn26gBZNVYGz-82" style="edgeStyle=orthogonalEdgeStyle;shape=connector;rounded=0;orthogonalLoop=1;jettySize=auto;html=1;exitX=1;exitY=0.5;exitDx=0;exitDy=0;entryX=0.5;entryY=0;entryDx=0;entryDy=0;labelBackgroundColor=default;strokeColor=default;fontFamily=Helvetica;fontSize=11;fontColor=default;startArrow=diamond;startFill=1;endArrow=none;endFill=0;" parent="1" source="ke4ovrecutf4wJZY0rZ7-125" target="ke4ovrecutf4wJZY0rZ7-14" edge="1">
          <mxGeometry relative="1" as="geometry">
            <Array as="points">
              <mxPoint x="93" y="128" />
              <mxPoint x="93" y="26" />
              <mxPoint x="350" y="26" />
              <mxPoint x="350" y="48" />
            </Array>
          </mxGeometry>
        </mxCell>
        <mxCell id="RekMIjmEzn26gBZNVYGz-86" value="" style="curved=1;endArrow=none;html=1;rounded=0;labelBackgroundColor=default;strokeColor=default;fontFamily=Helvetica;fontSize=11;fontColor=default;shape=connector;endFill=0;" parent="1" edge="1">
          <mxGeometry width="50" height="50" relative="1" as="geometry">
            <mxPoint x="140.37" y="35.620000000000005" as="sourcePoint" />
            <mxPoint x="134.37" y="35.620000000000005" as="targetPoint" />
            <Array as="points">
              <mxPoint x="137.37" y="29.620000000000005" />
            </Array>
          </mxGeometry>
        </mxCell>
        <mxCell id="RekMIjmEzn26gBZNVYGz-88" value="" style="endArrow=none;dashed=1;html=1;rounded=0;labelBackgroundColor=default;strokeColor=default;fontFamily=Helvetica;fontSize=11;fontColor=default;shape=connector;" parent="1" edge="1">
          <mxGeometry width="50" height="50" relative="1" as="geometry">
            <mxPoint x="103" y="348" as="sourcePoint" />
            <mxPoint x="100" y="2.620000000000001" as="targetPoint" />
          </mxGeometry>
        </mxCell>
        <mxCell id="RekMIjmEzn26gBZNVYGz-89" value="" style="endArrow=none;dashed=1;html=1;rounded=0;labelBackgroundColor=default;strokeColor=default;fontFamily=Helvetica;fontSize=11;fontColor=default;shape=connector;entryX=0;entryY=1;entryDx=0;entryDy=0;" parent="1" target="ke4ovrecutf4wJZY0rZ7-94" edge="1">
          <mxGeometry width="50" height="50" relative="1" as="geometry">
            <mxPoint x="686" y="346" as="sourcePoint" />
            <mxPoint x="683" y="29" as="targetPoint" />
          </mxGeometry>
        </mxCell>
        <mxCell id="RekMIjmEzn26gBZNVYGz-138" style="edgeStyle=orthogonalEdgeStyle;shape=connector;rounded=0;orthogonalLoop=1;jettySize=auto;html=1;exitX=0.75;exitY=1;exitDx=0;exitDy=0;entryX=1.013;entryY=0.285;entryDx=0;entryDy=0;entryPerimeter=0;labelBackgroundColor=default;strokeColor=default;fontFamily=Helvetica;fontSize=11;fontColor=default;startArrow=diamond;startFill=1;endArrow=none;endFill=0;" parent="1" source="RekMIjmEzn26gBZNVYGz-95" target="RekMIjmEzn26gBZNVYGz-98" edge="1">
          <mxGeometry relative="1" as="geometry">
            <Array as="points">
              <mxPoint x="649" y="311.62" />
            </Array>
          </mxGeometry>
        </mxCell>
        <mxCell id="RekMIjmEzn26gBZNVYGz-147" style="edgeStyle=orthogonalEdgeStyle;shape=connector;rounded=0;orthogonalLoop=1;jettySize=auto;html=1;exitX=1.01;exitY=0.264;exitDx=0;exitDy=0;entryX=0;entryY=0.5;entryDx=0;entryDy=0;labelBackgroundColor=default;strokeColor=default;fontFamily=Helvetica;fontSize=11;fontColor=default;startArrow=block;startFill=0;endArrow=none;endFill=0;exitPerimeter=0;" parent="1" source="RekMIjmEzn26gBZNVYGz-96" target="ke4ovrecutf4wJZY0rZ7-104" edge="1">
          <mxGeometry relative="1" as="geometry">
            <Array as="points">
              <mxPoint x="689" y="265" />
              <mxPoint x="689" y="324" />
              <mxPoint x="693" y="324" />
            </Array>
            <mxPoint x="672.9235000000001" y="265.15100000000007" as="sourcePoint" />
          </mxGeometry>
        </mxCell>
        <mxCell id="RekMIjmEzn26gBZNVYGz-95" value="🛂Sma" style="swimlane;fontStyle=1;childLayout=stackLayout;horizontal=1;startSize=15;fillColor=none;horizontalStack=0;resizeParent=1;resizeParentMax=0;resizeLast=0;collapsible=0;marginBottom=0;spacingLeft=0;labelBackgroundColor=none;fontFamily=Noto Emoji;spacingBottom=2;spacing=2;spacingTop=0;" parent="1" vertex="1">
          <mxGeometry x="591.5" y="241.75" width="76.5" height="46" as="geometry" />
        </mxCell>
        <mxCell id="RekMIjmEzn26gBZNVYGz-96" value="inps_reqs:🛃[]&#xa;outs_reqs:🛃[]" style="text;strokeColor=none;fillColor=none;align=left;verticalAlign=top;spacingLeft=0;spacingRight=0;overflow=hidden;rotatable=0;points=[[0,0.5],[1,0.5]];portConstraint=eastwest;spacingTop=-6;labelBackgroundColor=none;fontFamily=Noto Emoji;spacing=2;" parent="RekMIjmEzn26gBZNVYGz-95" vertex="1">
          <mxGeometry y="15" width="76.5" height="31" as="geometry" />
        </mxCell>
        <mxCell id="RekMIjmEzn26gBZNVYGz-97" value="🛃Req" style="swimlane;fontStyle=1;childLayout=stackLayout;horizontal=1;startSize=16;fillColor=none;horizontalStack=0;resizeParent=1;resizeParentMax=0;resizeLast=0;collapsible=0;marginBottom=0;spacingLeft=0;labelBackgroundColor=none;fontFamily=Noto Emoji;spacingBottom=2;spacing=2;spacingTop=0;" parent="1" vertex="1">
          <mxGeometry x="591" y="289.73" width="42" height="46" as="geometry" />
        </mxCell>
        <mxCell id="RekMIjmEzn26gBZNVYGz-98" value="nme:📛&#xa;vlt:🩻" style="text;strokeColor=none;fillColor=none;align=left;verticalAlign=top;spacingLeft=0;spacingRight=0;overflow=hidden;rotatable=0;points=[[0,0.5],[1,0.5]];portConstraint=eastwest;spacingTop=-7;labelBackgroundColor=none;fontFamily=Noto Emoji;spacing=2;" parent="RekMIjmEzn26gBZNVYGz-97" vertex="1">
          <mxGeometry y="16" width="42" height="30" as="geometry" />
        </mxCell>
        <mxCell id="RekMIjmEzn26gBZNVYGz-103" value="" style="curved=1;endArrow=none;html=1;rounded=0;labelBackgroundColor=default;strokeColor=default;fontFamily=Helvetica;fontSize=11;fontColor=default;shape=connector;endFill=0;" parent="1" edge="1">
          <mxGeometry width="50" height="50" relative="1" as="geometry">
            <mxPoint x="276" y="100.11000000000001" as="sourcePoint" />
            <mxPoint x="270" y="100.11000000000001" as="targetPoint" />
            <Array as="points">
              <mxPoint x="273" y="94.11" />
            </Array>
          </mxGeometry>
        </mxCell>
        <mxCell id="RekMIjmEzn26gBZNVYGz-105" value="" style="endArrow=none;html=1;rounded=0;labelBackgroundColor=default;strokeColor=default;fontFamily=Helvetica;fontSize=11;fontColor=default;shape=connector;entryX=0;entryY=0.088;entryDx=0;entryDy=0;entryPerimeter=0;" parent="1" edge="1">
          <mxGeometry width="50" height="50" relative="1" as="geometry">
            <mxPoint x="276" y="99.62" as="sourcePoint" />
            <mxPoint x="281" y="99.72400000000002" as="targetPoint" />
          </mxGeometry>
        </mxCell>
        <mxCell id="RekMIjmEzn26gBZNVYGz-140" value="" style="endArrow=none;html=1;rounded=0;labelBackgroundColor=default;strokeColor=default;fontFamily=Helvetica;fontSize=11;fontColor=default;shape=connector;entryX=0.503;entryY=1.004;entryDx=0;entryDy=0;entryPerimeter=0;" parent="1" target="_75S0M02VXW5GKMzSnu0-5" edge="1">
          <mxGeometry width="50" height="50" relative="1" as="geometry">
            <mxPoint x="294" y="231" as="sourcePoint" />
            <mxPoint x="319.88500000000005" y="166.29199999999997" as="targetPoint" />
            <Array as="points">
              <mxPoint x="320" y="231" />
            </Array>
          </mxGeometry>
        </mxCell>
        <mxCell id="RekMIjmEzn26gBZNVYGz-151" value="" style="endArrow=none;html=1;rounded=0;labelBackgroundColor=default;strokeColor=default;fontFamily=Helvetica;fontSize=11;fontColor=default;shape=connector;" parent="1" edge="1">
          <mxGeometry width="50" height="50" relative="1" as="geometry">
            <mxPoint x="137" y="312" as="sourcePoint" />
            <mxPoint x="136.96" y="307.62" as="targetPoint" />
          </mxGeometry>
        </mxCell>
        <mxCell id="RekMIjmEzn26gBZNVYGz-152" value="" style="endArrow=none;html=1;rounded=0;labelBackgroundColor=default;strokeColor=default;fontFamily=Helvetica;fontSize=11;fontColor=default;shape=connector;" parent="1" edge="1">
          <mxGeometry width="50" height="50" relative="1" as="geometry">
            <mxPoint x="176.04" y="312" as="sourcePoint" />
            <mxPoint x="176" y="307.62" as="targetPoint" />
          </mxGeometry>
        </mxCell>
        <mxCell id="RekMIjmEzn26gBZNVYGz-153" value="" style="endArrow=none;html=1;rounded=0;labelBackgroundColor=default;strokeColor=default;fontFamily=Helvetica;fontSize=11;fontColor=default;shape=connector;" parent="1" edge="1">
          <mxGeometry width="50" height="50" relative="1" as="geometry">
            <mxPoint x="253.04000000000002" y="312" as="sourcePoint" />
            <mxPoint x="253" y="307.62" as="targetPoint" />
          </mxGeometry>
        </mxCell>
        <mxCell id="RekMIjmEzn26gBZNVYGz-154" value="" style="endArrow=none;html=1;rounded=0;labelBackgroundColor=default;strokeColor=default;fontFamily=Helvetica;fontSize=11;fontColor=default;shape=connector;" parent="1" edge="1">
          <mxGeometry width="50" height="50" relative="1" as="geometry">
            <mxPoint x="290.40999999999997" y="312" as="sourcePoint" />
            <mxPoint x="290.37" y="307.62" as="targetPoint" />
          </mxGeometry>
        </mxCell>
        <mxCell id="RekMIjmEzn26gBZNVYGz-155" value="" style="curved=1;endArrow=none;html=1;rounded=0;labelBackgroundColor=default;strokeColor=default;fontFamily=Helvetica;fontSize=11;fontColor=default;shape=connector;endFill=0;" parent="1" edge="1">
          <mxGeometry width="50" height="50" relative="1" as="geometry">
            <mxPoint x="235" y="232" as="sourcePoint" />
            <mxPoint x="229" y="232" as="targetPoint" />
            <Array as="points">
              <mxPoint x="232" y="226" />
            </Array>
          </mxGeometry>
        </mxCell>
        <mxCell id="RekMIjmEzn26gBZNVYGz-156" value="" style="curved=1;endArrow=none;html=1;rounded=0;labelBackgroundColor=default;strokeColor=default;fontFamily=Helvetica;fontSize=11;fontColor=default;shape=connector;endFill=0;" parent="1" edge="1">
          <mxGeometry width="50" height="50" relative="1" as="geometry">
            <mxPoint x="268" y="232.62" as="sourcePoint" />
            <mxPoint x="262" y="232.62" as="targetPoint" />
            <Array as="points">
              <mxPoint x="265" y="226.62" />
            </Array>
          </mxGeometry>
        </mxCell>
        <mxCell id="RekMIjmEzn26gBZNVYGz-158" value="" style="curved=1;endArrow=none;html=1;rounded=0;labelBackgroundColor=default;strokeColor=default;fontFamily=Helvetica;fontSize=11;fontColor=default;shape=connector;endFill=0;" parent="1" edge="1">
          <mxGeometry width="50" height="50" relative="1" as="geometry">
            <mxPoint x="294.62" y="231.62" as="sourcePoint" />
            <mxPoint x="288.62" y="231.62" as="targetPoint" />
            <Array as="points">
              <mxPoint x="291.62" y="225.62" />
            </Array>
          </mxGeometry>
        </mxCell>
        <mxCell id="RekMIjmEzn26gBZNVYGz-159" value="" style="endArrow=none;html=1;rounded=0;labelBackgroundColor=default;strokeColor=default;fontFamily=Helvetica;fontSize=11;fontColor=default;shape=connector;" parent="1" edge="1">
          <mxGeometry width="50" height="50" relative="1" as="geometry">
            <mxPoint x="267" y="232" as="sourcePoint" />
            <mxPoint x="289" y="232" as="targetPoint" />
          </mxGeometry>
        </mxCell>
        <mxCell id="RekMIjmEzn26gBZNVYGz-161" value="" style="endArrow=none;html=1;rounded=0;labelBackgroundColor=default;strokeColor=default;fontFamily=Helvetica;fontSize=11;fontColor=default;shape=connector;" parent="1" edge="1">
          <mxGeometry width="50" height="50" relative="1" as="geometry">
            <mxPoint x="235" y="232" as="sourcePoint" />
            <mxPoint x="262" y="232" as="targetPoint" />
          </mxGeometry>
        </mxCell>
        <mxCell id="RekMIjmEzn26gBZNVYGz-162" value="" style="endArrow=none;html=1;rounded=0;labelBackgroundColor=default;strokeColor=default;fontFamily=Helvetica;fontSize=11;fontColor=default;shape=connector;" parent="1" edge="1">
          <mxGeometry width="50" height="50" relative="1" as="geometry">
            <mxPoint x="357" y="238" as="sourcePoint" />
            <mxPoint x="357" y="234" as="targetPoint" />
          </mxGeometry>
        </mxCell>
        <mxCell id="RekMIjmEzn26gBZNVYGz-165" value="" style="curved=1;endArrow=none;html=1;rounded=0;labelBackgroundColor=default;strokeColor=default;fontFamily=Helvetica;fontSize=11;fontColor=default;shape=connector;endFill=0;" parent="1" edge="1">
          <mxGeometry width="50" height="50" relative="1" as="geometry">
            <mxPoint x="394" y="235.00000000000006" as="sourcePoint" />
            <mxPoint x="388" y="235.00000000000006" as="targetPoint" />
            <Array as="points">
              <mxPoint x="391" y="229.00000000000006" />
            </Array>
          </mxGeometry>
        </mxCell>
        <mxCell id="RekMIjmEzn26gBZNVYGz-166" value="" style="endArrow=none;html=1;rounded=0;labelBackgroundColor=default;strokeColor=default;fontFamily=Helvetica;fontSize=11;fontColor=default;shape=connector;" parent="1" edge="1">
          <mxGeometry width="50" height="50" relative="1" as="geometry">
            <mxPoint x="394" y="235" as="sourcePoint" />
            <mxPoint x="526" y="219" as="targetPoint" />
            <Array as="points">
              <mxPoint x="457" y="235" />
              <mxPoint x="457" y="219" />
            </Array>
          </mxGeometry>
        </mxCell>
        <mxCell id="RekMIjmEzn26gBZNVYGz-167" value="" style="endArrow=none;html=1;rounded=0;labelBackgroundColor=default;strokeColor=default;fontFamily=Helvetica;fontSize=11;fontColor=default;shape=connector;" parent="1" edge="1">
          <mxGeometry width="50" height="50" relative="1" as="geometry">
            <mxPoint x="425" y="143" as="sourcePoint" />
            <mxPoint x="428" y="143" as="targetPoint" />
          </mxGeometry>
        </mxCell>
        <mxCell id="RekMIjmEzn26gBZNVYGz-168" value="" style="endArrow=none;html=1;rounded=0;labelBackgroundColor=default;strokeColor=default;fontFamily=Helvetica;fontSize=11;fontColor=default;shape=connector;entryX=-0.009;entryY=0.86;entryDx=0;entryDy=0;entryPerimeter=0;" parent="1" target="ke4ovrecutf4wJZY0rZ7-52" edge="1">
          <mxGeometry width="50" height="50" relative="1" as="geometry">
            <mxPoint x="394" y="235" as="sourcePoint" />
            <mxPoint x="428" y="212" as="targetPoint" />
            <Array as="points">
              <mxPoint x="416" y="235" />
              <mxPoint x="416" y="208" />
            </Array>
          </mxGeometry>
        </mxCell>
        <mxCell id="RekMIjmEzn26gBZNVYGz-169" value="" style="curved=1;endArrow=none;html=1;rounded=0;labelBackgroundColor=default;strokeColor=default;fontFamily=Helvetica;fontSize=11;fontColor=default;shape=connector;endFill=0;" parent="1" edge="1">
          <mxGeometry width="50" height="50" relative="1" as="geometry">
            <mxPoint x="140" y="31.000000000000007" as="sourcePoint" />
            <mxPoint x="134" y="31.000000000000007" as="targetPoint" />
            <Array as="points">
              <mxPoint x="137" y="25.000000000000007" />
            </Array>
          </mxGeometry>
        </mxCell>
        <mxCell id="RekMIjmEzn26gBZNVYGz-170" value="" style="endArrow=none;html=1;rounded=0;labelBackgroundColor=default;strokeColor=default;fontFamily=Helvetica;fontSize=11;fontColor=default;shape=connector;" parent="1" edge="1">
          <mxGeometry width="50" height="50" relative="1" as="geometry">
            <mxPoint x="140.00000000000003" y="31" as="sourcePoint" />
            <mxPoint x="213" y="31" as="targetPoint" />
          </mxGeometry>
        </mxCell>
        <mxCell id="RekMIjmEzn26gBZNVYGz-172" value="" style="endArrow=none;html=1;rounded=0;labelBackgroundColor=default;strokeColor=default;fontFamily=Helvetica;fontSize=11;fontColor=default;shape=connector;entryX=0.32;entryY=-0.013;entryDx=0;entryDy=0;entryPerimeter=0;" parent="1" target="ke4ovrecutf4wJZY0rZ7-14" edge="1">
          <mxGeometry width="50" height="50" relative="1" as="geometry">
            <mxPoint x="219" y="35" as="sourcePoint" />
            <mxPoint x="337" y="36" as="targetPoint" />
            <Array as="points">
              <mxPoint x="333" y="35" />
            </Array>
          </mxGeometry>
        </mxCell>
        <mxCell id="RekMIjmEzn26gBZNVYGz-173" value="" style="curved=1;endArrow=none;html=1;rounded=0;labelBackgroundColor=default;strokeColor=default;fontFamily=Helvetica;fontSize=11;fontColor=default;shape=connector;endFill=0;" parent="1" edge="1">
          <mxGeometry width="50" height="50" relative="1" as="geometry">
            <mxPoint x="219" y="35.620000000000005" as="sourcePoint" />
            <mxPoint x="213" y="35.620000000000005" as="targetPoint" />
            <Array as="points">
              <mxPoint x="216" y="29.620000000000005" />
            </Array>
          </mxGeometry>
        </mxCell>
        <mxCell id="RekMIjmEzn26gBZNVYGz-174" value="" style="endArrow=none;html=1;rounded=0;labelBackgroundColor=default;strokeColor=default;fontFamily=Helvetica;fontSize=11;fontColor=default;shape=connector;" parent="1" edge="1">
          <mxGeometry width="50" height="50" relative="1" as="geometry">
            <mxPoint x="140" y="35" as="sourcePoint" />
            <mxPoint x="213" y="35" as="targetPoint" />
          </mxGeometry>
        </mxCell>
        <mxCell id="RekMIjmEzn26gBZNVYGz-175" value="" style="curved=1;endArrow=none;html=1;rounded=0;labelBackgroundColor=default;strokeColor=default;fontFamily=Helvetica;fontSize=11;fontColor=default;shape=connector;endFill=0;" parent="1" edge="1">
          <mxGeometry width="50" height="50" relative="1" as="geometry">
            <mxPoint x="219" y="38.00000000000001" as="sourcePoint" />
            <mxPoint x="213" y="38.00000000000001" as="targetPoint" />
            <Array as="points">
              <mxPoint x="216" y="32.00000000000001" />
            </Array>
          </mxGeometry>
        </mxCell>
        <mxCell id="RekMIjmEzn26gBZNVYGz-176" value="" style="endArrow=none;html=1;rounded=0;labelBackgroundColor=default;strokeColor=default;fontFamily=Helvetica;fontSize=11;fontColor=default;shape=connector;" parent="1" edge="1">
          <mxGeometry width="50" height="50" relative="1" as="geometry">
            <mxPoint x="219" y="38" as="sourcePoint" />
            <mxPoint x="324" y="48" as="targetPoint" />
            <Array as="points">
              <mxPoint x="324" y="38" />
            </Array>
          </mxGeometry>
        </mxCell>
        <mxCell id="RekMIjmEzn26gBZNVYGz-177" value="" style="curved=1;endArrow=none;html=1;rounded=0;labelBackgroundColor=default;strokeColor=default;fontFamily=Helvetica;fontSize=11;fontColor=default;shape=connector;endFill=0;" parent="1" edge="1">
          <mxGeometry width="50" height="50" relative="1" as="geometry">
            <mxPoint x="219" y="32.00000000000001" as="sourcePoint" />
            <mxPoint x="213" y="32.00000000000001" as="targetPoint" />
            <Array as="points">
              <mxPoint x="216" y="26.000000000000007" />
            </Array>
          </mxGeometry>
        </mxCell>
        <mxCell id="RekMIjmEzn26gBZNVYGz-179" value="" style="curved=1;endArrow=none;html=1;rounded=0;labelBackgroundColor=default;strokeColor=default;fontFamily=Helvetica;fontSize=11;fontColor=default;shape=connector;endFill=0;" parent="1" edge="1">
          <mxGeometry width="50" height="50" relative="1" as="geometry">
            <mxPoint x="158" y="38" as="sourcePoint" />
            <mxPoint x="158" y="31" as="targetPoint" />
            <Array as="points">
              <mxPoint x="163" y="34" />
            </Array>
          </mxGeometry>
        </mxCell>
        <mxCell id="RekMIjmEzn26gBZNVYGz-181" value="" style="curved=1;endArrow=none;html=1;rounded=0;labelBackgroundColor=default;strokeColor=default;fontFamily=Helvetica;fontSize=11;fontColor=default;shape=connector;endFill=0;" parent="1" edge="1">
          <mxGeometry width="50" height="50" relative="1" as="geometry">
            <mxPoint x="231" y="40" as="sourcePoint" />
            <mxPoint x="231" y="32" as="targetPoint" />
            <Array as="points">
              <mxPoint x="236" y="36" />
            </Array>
          </mxGeometry>
        </mxCell>
        <mxCell id="RekMIjmEzn26gBZNVYGz-182" value="" style="endArrow=none;html=1;rounded=0;labelBackgroundColor=default;strokeColor=default;fontFamily=Helvetica;fontSize=11;fontColor=default;shape=connector;" parent="1" edge="1">
          <mxGeometry width="50" height="50" relative="1" as="geometry">
            <mxPoint x="219.00000000000003" y="32" as="sourcePoint" />
            <mxPoint x="347" y="32" as="targetPoint" />
          </mxGeometry>
        </mxCell>
        <mxCell id="RekMIjmEzn26gBZNVYGz-183" style="edgeStyle=orthogonalEdgeStyle;shape=connector;rounded=0;orthogonalLoop=1;jettySize=auto;html=1;exitX=0.5;exitY=0;exitDx=0;exitDy=0;labelBackgroundColor=default;strokeColor=default;fontFamily=Helvetica;fontSize=11;fontColor=default;startArrow=none;startFill=0;endArrow=none;endFill=0;" parent="1" edge="1">
          <mxGeometry relative="1" as="geometry">
            <mxPoint x="289.0625" y="40.11" as="targetPoint" />
            <mxPoint x="289" y="48.11" as="sourcePoint" />
          </mxGeometry>
        </mxCell>
        <mxCell id="RekMIjmEzn26gBZNVYGz-184" value="" style="curved=1;endArrow=none;html=1;rounded=0;labelBackgroundColor=default;strokeColor=default;fontFamily=Helvetica;fontSize=11;fontColor=default;shape=connector;endFill=0;" parent="1" edge="1">
          <mxGeometry width="50" height="50" relative="1" as="geometry">
            <mxPoint x="289" y="40.11" as="sourcePoint" />
            <mxPoint x="289" y="32.11" as="targetPoint" />
            <Array as="points">
              <mxPoint x="294" y="36.11" />
            </Array>
          </mxGeometry>
        </mxCell>
        <mxCell id="RekMIjmEzn26gBZNVYGz-185" value="" style="curved=1;endArrow=none;html=1;rounded=0;labelBackgroundColor=default;strokeColor=default;fontFamily=Helvetica;fontSize=11;fontColor=default;shape=connector;endFill=0;" parent="1" edge="1">
          <mxGeometry width="50" height="50" relative="1" as="geometry">
            <mxPoint x="353" y="32.00000000000006" as="sourcePoint" />
            <mxPoint x="347" y="32.00000000000006" as="targetPoint" />
            <Array as="points">
              <mxPoint x="350" y="26.000000000000057" />
            </Array>
          </mxGeometry>
        </mxCell>
        <mxCell id="RekMIjmEzn26gBZNVYGz-186" value="" style="endArrow=none;html=1;rounded=0;labelBackgroundColor=default;strokeColor=default;fontFamily=Helvetica;fontSize=11;fontColor=default;shape=connector;entryX=0.5;entryY=0;entryDx=0;entryDy=0;" parent="1" target="RekMIjmEzn26gBZNVYGz-3" edge="1">
          <mxGeometry width="50" height="50" relative="1" as="geometry">
            <mxPoint x="353" y="32" as="sourcePoint" />
            <mxPoint x="492" y="32" as="targetPoint" />
            <Array as="points">
              <mxPoint x="494" y="32" />
            </Array>
          </mxGeometry>
        </mxCell>
        <mxCell id="RekMIjmEzn26gBZNVYGz-187" value="" style="endArrow=none;html=1;rounded=0;labelBackgroundColor=default;strokeColor=default;fontFamily=Helvetica;fontSize=11;fontColor=default;shape=connector;entryX=0.75;entryY=0;entryDx=0;entryDy=0;" parent="1" target="RekMIjmEzn26gBZNVYGz-59" edge="1">
          <mxGeometry width="50" height="50" relative="1" as="geometry">
            <mxPoint x="452" y="32" as="sourcePoint" />
            <mxPoint x="453" y="39" as="targetPoint" />
          </mxGeometry>
        </mxCell>
        <mxCell id="RekMIjmEzn26gBZNVYGz-188" value="" style="endArrow=none;html=1;rounded=0;labelBackgroundColor=default;strokeColor=default;fontFamily=Helvetica;fontSize=11;fontColor=default;shape=connector;" parent="1" edge="1">
          <mxGeometry width="50" height="50" relative="1" as="geometry">
            <mxPoint x="425" y="143" as="sourcePoint" />
            <mxPoint x="425" y="208" as="targetPoint" />
          </mxGeometry>
        </mxCell>
        <mxCell id="RekMIjmEzn26gBZNVYGz-189" value="" style="endArrow=none;html=1;rounded=0;labelBackgroundColor=default;strokeColor=default;fontFamily=Helvetica;fontSize=11;fontColor=default;shape=connector;exitX=0.777;exitY=1.009;exitDx=0;exitDy=0;exitPerimeter=0;" parent="1" source="ke4ovrecutf4wJZY0rZ7-142" edge="1">
          <mxGeometry width="50" height="50" relative="1" as="geometry">
            <mxPoint x="413" y="143" as="sourcePoint" />
            <mxPoint x="425" y="143" as="targetPoint" />
            <Array as="points">
              <mxPoint x="411" y="143" />
            </Array>
          </mxGeometry>
        </mxCell>
        <mxCell id="hONEj8g_Zq5nHaH9HZ53-2" value="" style="endArrow=none;html=1;rounded=0;labelBackgroundColor=default;strokeColor=default;fontFamily=Helvetica;fontSize=11;fontColor=default;shape=connector;entryX=0.461;entryY=0.002;entryDx=0;entryDy=0;entryPerimeter=0;" parent="1" target="ke4ovrecutf4wJZY0rZ7-14" edge="1">
          <mxGeometry width="50" height="50" relative="1" as="geometry">
            <mxPoint x="341" y="32" as="sourcePoint" />
            <mxPoint x="350" y="37" as="targetPoint" />
          </mxGeometry>
        </mxCell>
        <mxCell id="hONEj8g_Zq5nHaH9HZ53-3" value="" style="endArrow=none;html=1;rounded=0;labelBackgroundColor=default;strokeColor=default;fontFamily=Helvetica;fontSize=11;fontColor=default;shape=connector;entryX=0.5;entryY=0;entryDx=0;entryDy=0;" parent="1" target="ke4ovrecutf4wJZY0rZ7-69" edge="1">
          <mxGeometry width="50" height="50" relative="1" as="geometry">
            <mxPoint x="392" y="32" as="sourcePoint" />
            <mxPoint x="402" y="24" as="targetPoint" />
          </mxGeometry>
        </mxCell>
        <mxCell id="Tq5NTx9WP40M7A0pYZYg-2" value="☑️&lt;b&gt;Bol&lt;/b&gt;" style="html=1;labelBackgroundColor=none;fillColor=none;fontFamily=Noto Emoji;fontStyle=1;startSize=10;spacing=2;spacingLeft=-2;spacingTop=0;spacingBottom=0;" parent="1" vertex="1">
          <mxGeometry x="188" y="271" width="36" height="14.26" as="geometry" />
        </mxCell>
        <mxCell id="m9qqXI9v53oya-DBNAg6-1" value="🏭Fct" style="swimlane;fontStyle=1;align=center;verticalAlign=middle;childLayout=stackLayout;horizontal=1;startSize=13;horizontalStack=0;resizeParent=1;resizeParentMax=0;resizeLast=0;collapsible=0;marginBottom=0;strokeColor=default;labelBackgroundColor=none;fillColor=none;fontFamily=Noto Emoji;spacingLeft=0;spacingTop=0;spacingBottom=2;spacing=2;" parent="1" vertex="1">
          <mxGeometry x="693" y="190.62" width="106" height="37" as="geometry" />
        </mxCell>
        <mxCell id="m9qqXI9v53oya-DBNAg6-2" value="" style="line;strokeWidth=1;fillColor=none;align=left;verticalAlign=middle;spacingTop=-1;spacingLeft=3;spacingRight=3;rotatable=0;labelPosition=right;points=[];portConstraint=eastwest;labelBackgroundColor=none;fontFamily=Times New Roman;" parent="m9qqXI9v53oya-DBNAg6-1" vertex="1">
          <mxGeometry y="13" width="106" height="8" as="geometry" />
        </mxCell>
        <mxCell id="m9qqXI9v53oya-DBNAg6-3" value="" style="endArrow=none;html=1;rounded=0;labelBackgroundColor=default;strokeColor=default;fontFamily=Helvetica;fontSize=11;fontColor=default;shape=connector;entryX=0;entryY=0.035;entryDx=0;entryDy=0;entryPerimeter=0;" parent="m9qqXI9v53oya-DBNAg6-1" edge="1">
          <mxGeometry width="50" height="50" relative="1" as="geometry">
            <mxPoint x="-4" y="20.879999999999995" as="sourcePoint" />
            <mxPoint y="21" as="targetPoint" />
          </mxGeometry>
        </mxCell>
        <mxCell id="m9qqXI9v53oya-DBNAg6-4" value="GetPty(🗃️[]):☐" style="text;strokeColor=none;fillColor=none;align=left;verticalAlign=top;spacingLeft=0;spacingRight=0;overflow=hidden;rotatable=0;points=[[0,0.5],[1,0.5]];portConstraint=eastwest;labelBackgroundColor=none;spacingTop=-8;fontFamily=Noto Emoji;" parent="m9qqXI9v53oya-DBNAg6-1" vertex="1">
          <mxGeometry y="21" width="106" height="16" as="geometry" />
        </mxCell>
      </root>
    </mxGraphModel>
  </diagram>
</mxfile>
